/* XPM */
static char *result[] = {
/* columns rows colors chars-per-pixel */
"45 45 151 2 ",
"   c #020201",
".  c #0A0704",
"X  c #0C0905",
"o  c #0C0B0A",
"O  c #140D07",
"+  c #110E0A",
"@  c #190F09",
"#  c #15110D",
"$  c #1C140C",
"%  c #151310",
"&  c #1A1613",
"*  c #1E1A12",
"=  c #1F1B19",
"-  c #23160C",
";  c #26190E",
":  c #2B1B0F",
">  c #221C13",
",  c #2E1E10",
"<  c #211C19",
"1  c #2A2316",
"2  c #26211E",
"3  c #2D251A",
"4  c #352214",
"5  c #392414",
"6  c #3E2815",
"7  c #332719",
"8  c #342C1C",
"9  c #3B2D1C",
"0  c #3A301E",
"q  c #272521",
"w  c #2C2621",
"e  c #2D2925",
"r  c #322B25",
"t  c #342E29",
"y  c #3D3322",
"u  c #35312C",
"i  c #3B332D",
"p  c #3B3430",
"a  c #3D3933",
"s  c #432A17",
"d  c #452C19",
"f  c #4B2F1A",
"g  c #44311E",
"h  c #4D311B",
"j  c #53341D",
"k  c #5B371F",
"l  c #5C381F",
"z  c #413724",
"x  c #453924",
"c  c #493D27",
"v  c #4A3E29",
"b  c #5E3B20",
"n  c #403730",
"m  c #433932",
"M  c #493E36",
"N  c #433E39",
"B  c #633E22",
"V  c #4C412A",
"C  c #52442B",
"Z  c #5B4729",
"A  c #56482E",
"S  c #594A2F",
"D  c #4B433B",
"F  c #524730",
"G  c #564930",
"H  c #5C4E33",
"J  c #52463D",
"K  c #5F5134",
"L  c #5F5238",
"P  c #644123",
"I  c #6B4225",
"U  c #714427",
"Y  c #734628",
"T  c #754A28",
"R  c #7C4C2B",
"E  c #7D512B",
"W  c #665435",
"Q  c #695736",
"!  c #6A5937",
"~  c #645638",
"^  c #6D5C3B",
"/  c #735D39",
"(  c #75623E",
")  c #4D4541",
"_  c #534942",
"`  c #594B42",
"'  c #5A4F49",
"]  c #5C544C",
"[  c #5E5950",
"{  c #6C5D4B",
"}  c #635750",
"|  c #635C53",
" . c #6A5D55",
".. c #6F604F",
"X. c #756540",
"o. c #7A6546",
"O. c #7E6A45",
"+. c #6A6155",
"@. c #6E6159",
"#. c #726555",
"$. c #7D6D53",
"%. c #72645C",
"&. c #7C6D5B",
"*. c #796D67",
"=. c #776E6B",
"-. c #777064",
";. c #7A7266",
":. c #7B706D",
">. c #804E2C",
",. c #85562E",
"<. c #826D45",
"1. c #8A6C45",
"2. c #826F4A",
"3. c #8B6D48",
"4. c #867046",
"5. c #8C7246",
"6. c #86724A",
"7. c #8B754B",
"8. c #8F7A4F",
"9. c #957646",
"0. c #987645",
"q. c #967847",
"w. c #937749",
"e. c #91794C",
"r. c #847356",
"t. c #8A7553",
"y. c #8E7A53",
"u. c #84745A",
"i. c #917B54",
"p. c #917D5D",
"a. c #8B7A64",
"s. c #82756A",
"d. c #827A6D",
"f. c #977F66",
"g. c #917D69",
"h. c #827675",
"j. c #857C72",
"k. c #8D7E77",
"l. c #8B7D7C",
"z. c #938065",
"x. c #94826C",
"c. c #958375",
"v. c #938679",
"b. c #998579",
"n. c #918879",
"m. c #948486",
"M. c #988782",
"N. c #998C81",
"B. c #9A8A8B",
"V. c #BBAF9D",
"C. c #CDC1AD",
/* pixels */
"8.8.8.8.8.a.N.c.8.8.8.8.e.e.8.8.8.8.8.8.8.8.8.8.8.8.y.e.8.y.8.e.w.e.e.8.8.8.8.8.8.8.8.8.8.",
"8.8.8.8.7.%.j.s.8.w.0.0.w.0.0.0.q.8.8.8.8.y.8.7.1.7.8.e.8.e.q.q.9.9.q.0.w.8.8.8.8.8.8.8.e.",
"8.8.7.8.8.6.#.7.8.0.9.9.0.9.W * $ * * $ $ v 8.A & $ $ & $ $ C 9.w.9.9.9.q.w.8.7.8.y.y.y.8.",
"e.w.8.7.8.y.8.8.9.9.9.9.5.9.Z @ X X X X   8 6.9   . O X o X g 9.9.9.9.9.w.8.O.8.7.s.B.v.y.",
"9.0.8.O.8.w.e.w.w.w.1.@ @ @ 4 P I I I k . . O . O f U B I I d $ # ; / 5.7.8.7.7.7.*.m.B.p.",
"5.0.z.7.4.w.w.w.w.5.W $ $ - s R E E I j - $ $ - : j B R ,.R j $ - : S 8.8.e.w.5.5...=.s.8.",
"z.0.q.8.8.5.w.w.w.0 4 I I I Y E >.Y : - B I I I l , , B >.>.T I B B 8 y 8.e.5.7.w.w.4.w.8.",
"q.5.w.8.8.8.7.w.8.; @ R ,.R >.>.>.U - O Y >.>.>.B ; - B >.>.>.>.,.U ; 1 8.8.6.7.e.w.e.e.8.",
"z.5.q.q.8.8.q.4.e.* $ E >.>.>.>.>.B @ O T >.>.>.B , - B >.>.>.>.>.Y ; 1 8.8.7.7.5.7.8.e.8.",
"5.q.q.q.8.8.8.e.4.* $ E >.>.>.>.>.U - O T >.>.>.B , @ B >.>.>.>.>.Y - 1 e.7.7.8.8.8.8.8.8.",
"q.z.z.5.8.8.e.e.q.$ $ E >.>.E E >.Y - O Y >.R E B : - B >.>.>.>.R Y ; 1 8.7.y.8.8.8.8.8.8.",
"7.q.5.5.8.8.8.e.z.z.^ . : E ,.E >.>.T B O . . . - k R >.>.>.>.>.4 # K 8.8.8.8.8.8.8.8.8.8.",
"e.7.e.8.8.8.8.8.5.q.4.+ 1 P T I Y B Y B # X   . - j U U B B R B 4 * X.e.8.8.8.8.8.8.8.8.8.",
"5.z.e.8.8.8.8.8.e.7.8.8.K + X X X X X - 7.V   c 2.7 . . O X O O G e.w.9.q.w.e.8.8.8.8.8.8.",
"q.8.8.8.8.8.8.8.z.e.8.8.^ * * $ > > ; 7 8.A   V 8.z * * > - - - Q w.9.9.q.9.q.q.e.y.8.8.8.",
"8.8.8.8.8.8.8.8.5.e.8.8.z.0.q.q.1.%.m.f.w.A X c 7.8.e.i.t.y.e.i.e.w.w.9.w.w.w.w.q.w.8.8.8.",
"8.8.y.y.z.y.8.8.8.8.y.e.w.w.w.7.4.o.#.t.x d d g v i.7.i.e.8.8.e.w.w.w.w.w.w.w.w.w.w.w.7.y.",
"8.y.7.k.B.N.y.8.8.8.w.w.w.w.w.w.7.w.5.<.@ 6 R s - K y.e.8.8.e.w.w.w.w.w.w.w.w.w.w.e.w.w.7.",
"8.8.6.l.B.m.a.8.8.7.w.e.e.e.w.e.7.7.x 5 j B >.B b 9 v i.y.e.e.e.w.w.w.8.e.w.e.e.w.w.w.8.8.",
"8.8.7.+.%.&.y.8.7.4.e.Q Q Q Q W W G $ X j k B b d @ & G ^ ! ! ! ! ( 8.w.e.e.e.e.e.8.8.y.8.",
"8.8.8.8.8.8.8.8.7.8.6.+ + + + o O X     o X X X X     o + + + + o * ( 8.8.8.8.8.7.y.y.c.c.",
"8.8.8.8.8.8.8.8.O.O.L       X = = = = = < < = & < = < < = = +     o A 8.w.7.8.7.7.e.$.l.v.",
"8.8.8.e.8.8.8.8.O.*         q  .%.%.%.%.%.%.%.*.%.%.%.%.%.%.a         1 7.7.8.8.i.8.6.+.&.",
"8.8.8.y.8.8.8.O.K # o a e   q  .%. .' _ _ _ _ ) _ _ '  .%.%.a   q p + * K 8.8.8.8.8.y.7.y.",
"8.8.8.8.8.8.8.8   o u C.n.  q }  .] = . X   . X . . < _  . .p   :.V.D o   F 8.8.8.8.8.e.8.",
"e.e.8.y.8.8.e.8 o | ;.[ D   + e r r g h h h h h f f g r r r &   a [ ;.[ + V 8.8.8.8.8.y.8.",
"e.q.e.8.8.e.z.5 o n.n.          X - I ,.,.,.,.,.,.,.I , X         % x.d.% C 7.7.8.w.w.e.8.",
"e.q.e.8.e.q.q.8 . u a           5 B E ,.,.,.,.,.,.,.E P s .       o e r . V 5.5.q.q.9.w.8.",
"z.q.q.q.q.w.w.C 3 o . < %     . h ,.,.,.,.,.,.,.,.,.,.,.B X     # = . o 3 ! 4.q.w.w.w.8.8.",
"4.q.q.5.8.7.5.5.<.- o J i     . j ,.,.,.,.,.,.,.,.,.,.,.P O     r D % 1 ( 8.e.e.w.w.w.e.8.",
"7.q.q.z.4.z.z.W v r w r <     . j ,.,.,.,.,.,.,.,.,.,.,.B X     < r 3 t V 7.8.8.e.e.8.e.8.",
"z.q.q.q.4.4.q.6 X M M         . h ,.,.,.,.,.,.,.,.,.,.,.b O       o m n o A 8.8.8.8.8.8.8.",
"5.e.5.e.7.8.8.8 o V L a q     X j ,.,.,.,.,.,.,.,.,.,.,.Z O     2 m J m o V t.y.8.8.8.8.8.",
"8.e.e.4.8.8.8.8 o a ' J a     o j E E E E E E E E E >.E l @     t ` ` n o C 7.e.8.8.8.y.8.",
"8.q.5.4.8.8.8.8 . o + o o   ; P 5 O @ O O O O O O O O O , P 6   o + + o   C 7.y.8.8.8.e.8.",
"8.q.5.z.8.8.8.8 . o % % o   , T d $ $ $ $ $ - $ $ $ $ - 5 T h   o + % o   C e.e.8.8.8.8.8.",
"8.z.8.8.8.8.8.8 . i J J i   , E E T T T T T T T T T T T E ,.h   t J J i . v q.i.8.y.8.8.8.",
"8.4.8.8.8.8.8.8 . M ` u 2   $ f h h h h h h h j h h h h h h :   < i _ m X C 9.9.q.e.e.8.8.",
"8.q.8.8.8.8.8.8 . N D             . .     .     .   .   . .       o m m X C w.q.e.q.e.y.8.",
"8.4.8.8.8.8.8.8   < 3 r r e = X 7 v v v V z N ) V V V V 8 . # e r r e >   C b.i.w.w.w.e.8.",
"e.7.8.8.8.8.y.y X . # J J J i # A w.e.w.e.w.7.v.z.e.8.8.Q $ w J D D & . . A B.z.w.e.w.8.8.",
"y.y.8.8.8.8.8.7.! #   # % % 8 ^ e.e.e.e.e.8.o.:.m.y.y.8.y.O.c % % + . * ~ =.:.r.7.4.4.7.8.",
"u.M.x.8.8.8.8.8.y.>         8 e.e.e.8.w.y.8.7.o.$.8.i.e.8.e.V         1 O.| #.8.8.8.8.8.7.",
"{ h.B.p.8.8.8.8.8.8.8.8.8.8.7.e.8.e.8.8.8.8.8.8.8.8.7.7.3.8.e.e.7.8.8.8.8.7.8.8.8.8.8.8.7.",
"2.{ #.t.8.8.8.8.8.8.8.8.8.8.8.8.8.8.8.8.8.8.8.8.8.8.8.8.8.8.8.8.i.8.8.8.8.8.8.8.8.8.8.8.8."
};
