/* XPM */
static char *result[] = {
/* columns rows colors chars-per-pixel */
"45 45 97 2 ",
"   c #422F28",
".  c #45322A",
"X  c #4A362C",
"o  c #4D392E",
"O  c #513D2F",
"+  c #493630",
"@  c #4E3A31",
"#  c #533D32",
"$  c #564132",
"%  c #5A4335",
"&  c #5D4936",
"*  c #53423D",
"=  c #5E4639",
"-  c #59483A",
";  c #604C37",
":  c #604739",
">  c #634A3B",
",  c #694E3E",
"<  c #645039",
"1  c #6A533C",
"2  c #6E5A3E",
"3  c #705C3F",
"4  c #5B4A45",
"5  c #675441",
"6  c #6E5241",
"7  c #6C5D4B",
"8  c #735543",
"9  c #745B43",
"0  c #7B5A46",
"q  c #7B5D49",
"w  c #6A5D50",
"e  c #756142",
"r  c #7A6644",
"t  c #7E6946",
"y  c #7E614C",
"u  c #726557",
"i  c #81653F",
"p  c #825C46",
"a  c #835E49",
"s  c #806B46",
"d  c #85624C",
"f  c #8D654D",
"g  c #836F49",
"h  c #8D684E",
"j  c #90674E",
"k  c #91694F",
"l  c #84704A",
"z  c #8A754C",
"x  c #8F7A4F",
"c  c #977645",
"v  c #927A4C",
"b  c #856651",
"n  c #8A6651",
"m  c #856856",
"M  c #8D6A52",
"N  c #866B59",
"B  c #8A6D5A",
"V  c #936D52",
"C  c #906F59",
"Z  c #8A7652",
"A  c #8F7A51",
"S  c #84745A",
"D  c #8F7159",
"F  c #957155",
"G  c #997456",
"H  c #9B7856",
"J  c #94745A",
"K  c #9B7659",
"L  c #96795C",
"P  c #9C7B5B",
"I  c #A17D5C",
"U  c #A87D5F",
"Y  c #816F64",
"T  c #8E7C62",
"R  c #947562",
"E  c #977965",
"W  c #9B7C63",
"Q  c #9D7D69",
"!  c #827675",
"~  c #A27D62",
"^  c #A07E69",
"/  c #9F815F",
"(  c #A4825E",
")  c #9E8161",
"_  c #94826C",
"`  c #928070",
"'  c #A48562",
"]  c #A98662",
"[  c #A58966",
"{  c #AC8C65",
"}  c #A3826B",
"|  c #AD8A68",
" . c #B28C6A",
".. c #AF9067",
"X. c #988784",
"o. c #998882",
"O. c #99898B",
/* pixels */
"x x x x x T X.` z g g g d r 3 e 9 1 & & % $ O o o . . . o # # = 6 , 3 0 r s g z v F x x x ",
"x x x x z 7 * . . o # # % : : % d = % $ , = # o o O @ @ # # 1 O # o X # .     . # r x x x ",
"x x z v s X . 5 , : : : : > > : 0 , , > , > > > 8 > 6 6 8 q q 8 6 4 8 0 : % O 6 $ X t A A ",
"v v x r o     # : , , 8 0 d k G F K K P P K J F K P P I K G F G K K V V d d , 2 # + @ u A ",
"v c r %     . # , a j f j j j M j V V k f k V G V k V k k j j j f j f a a a j 1 = +   @ Z ",
"v i o q > % 8 n V j f b f K U V V V G V y h G G I G G V V V k j j j a n ^ J j f 8 = .   r ",
"x X . = > n F j V } | | | | [ | V G K b R Q K P I V G G G G F V j j j E } ^ j j f d #   9 ",
"s   % q G f f f ' [ [ [ [ [ [ [  .G K D } } ~ P G I I F I G G G V V j F J k f j f a : . 2 ",
"r X 8 G p p f n ~ [ [ ' L L ) [ [ | V P ] ] ( ( G I ( G P P H H G n V k j j f j f f = X 1 ",
"e # q M B R J a ~ [ ' [ [ ) L ) [ [ J P ( ( ( ( H I ( H P I I I H F M k k j f j f V > # < ",
"9 + 8 n J W M P ) [ [ ) [ [ ) P P ' / M ] { ( ( I P ( P I ( I I P H F h k j f j h V 6 > & ",
"< # a j j f d J ) [ ) ) L L L / ) ) ] y { ] { ( ( P ( I I ( ( I I I H M V F d j j V 1 X $ ",
"; $ M V f j d a b W / ) ) L D D E ) ) d / { { ..( L ( P ( ( ] ( ( I P G M F n f j F , . $ ",
"% # V V f V k a d d G P W P W L D L P a P { { ( ( P ../ / ] ] ( ( ( I P V G n f f G :   % ",
"$ $ y h f V V G d d p d h M M M J F D p ( { { { ( / { P ] ( { ( V H ( P M G V n V V %   % ",
"o % b k f V G K H k d p 0 p p p d M d d { { ..../ / { / { { { P N L ( I F P V n V d :   $ ",
"o % J k k h G H ( ( ( H f d d 0 p p h ( ........L ( { { { { { / Q ' ' P G P F h F d = . % ",
". # K k V M G I ( ( ( ( ( ( P H P ( ..........' L ....{ ..{ { { ' ] ] J P P G M V P = . $ ",
". % K V V F M I ( ( ( { ( ..{ { { { ........] P { ........{ { ( ] ] P ( ( I G M V K y . % ",
"  % F V V G M K ( ( ( { { ( { ........../ L / ........{ ....../ P P ] ( ( I H V G V F # $ ",
"  % M F F G G V ( ( ( ( { P ..{ ......( / { ..........{ / P L / ] ] ] ] I I P H G G V > 4 ",
"  % a K F H I V H ( ( ( ( L { ....{ ..{ ............/ L L / ] { | K J I P I I H F K p # 4 ",
"  % q K G G P P P H v M ( L { ....................../ ] { ....( M P  . .n K P H F I , @ % ",
"  , n F F H P P P b m D W P [ { { P / { ..................] G D ~  .|  .n F k J G I 8 @ 1 ",
"  = n V G H I G P m R } Q P { ..{ M R } ............|  . . . .| [ ) | ] b n b E J I q # 2 ",
". # M V V H P G P L } } [ ) { { ..[ E [ ........{ L ] | [ [ [ [ ) P | C d K F ^ F P q @ e ",
"o % V j F G K G I ( ' [ ] P | { { ....{ ....{ P d ] [ [ ) [ [ [ E ' | b n P G F V U 9 @ r ",
"# # b j V F K F P ( ] ] | P ] ....{ ........P n ] [ ' ) [ [ ) W J ' ~ d n P F V k I 1 @ e ",
"# o > V V G G F I ( ( ] { ] L / { ..{ ....( G [ [ [ ) ) ) L ) ) D [ J a V I V V V I 6 + e ",
"$   # 6 f V G M H ( ( ( ( ( / L P ] ..{ ..J ) [ [ [ S ) ) L ) L L ' I a K P V V V F 6 X 3 ",
"%   . = > h G V P ( ( ( ( { { ( J ( { { { J ) ) ) ) L ) L L ) L W ' ] a F K G V G 6 : o 1 ",
"&   . $ > d V F H ( ( ( ( ( ] ] ( L { { { J ) ) J ) ) ) ) D ) ) ' ~ ~ a f K V G 0 : : + < ",
"; X > d , f j G G I I I ( ( ] ( ( P { { { F L / P L / P P D ) ) ) W d d j G V G 6 #   . & ",
"1 o = 1 3 j j V G V K I I ( ( ] ] P / ( { ( d J L L D L D D L P L M a p V V j F a a o   % ",
"2 o = q j j d j j V n K I ( ( ( ( ] ( ] ( { G d V J J M M L J L J d p d V j j k 8 6 #   % ",
"9 # > h j j a p f C F V F P I ( ( ( ( ( ( ( ( V a a Z D F F J D F p p h p p a j a > =   $ ",
"e o > M f f a p N R W G G G G G K I ( ( ( ( I P V d p p d h h h p p d f y m B j f , ; o % ",
"r o 6 f j f j 0 N } } K F G H G F F P I I I F n F G k p p p p p p d V d B E Q k j 8 > . % ",
"s . = 0 V j j d N Q ^ V k G F G G V G I P I V E Q W P G F f f f k k f f E } ^ k d , $   1 ",
"z   O > n V f j j n k j k k k F G G V G H H K W P G G G F F k k k f j j J Q J n , % . & x ",
"A 1 . $ 8 M G V j j j V G P K J V F I K F F F G G V V V V j j f f j j j f k f , % o 1 x v ",
"A A 9 . $ > 6 d V C V n q 6 , > > : 8 ~ F V V V k V V V j V k M j j j V F d > q # 1 s z x ",
"S X._ r X . # q = % : b : @ . # , % > q V J K G F J C V V M M M V M d q , = o o e x x x z ",
"u u O.L t X . , .   @ 6 X     . o o . . X > = @ # # $ = > q 0 & > = % = #   X r v v x x x ",
"Z 7 u Z v z 3 < ; % % % # # o o . . .         .     . . o % 5 $ $ $ & & ; 3 z x x x x x x "
};
