/* XPM */
static char *result[] = {
/* columns rows colors chars-per-pixel */
"45 47 200 2 ",
"   c #060505",
".  c #080807",
"X  c #070708",
"o  c #0A0A0B",
"O  c #08090B",
"+  c #070B12",
"@  c #090D13",
"#  c #0A121C",
"$  c #07101D",
"%  c #151515",
"&  c #0C1929",
"*  c #262727",
"=  c #313232",
"-  c #353739",
";  c #393B3E",
":  c #77643F",
">  c #0C2741",
",  c #0D2B46",
"<  c #0F3E65",
"1  c #0F4069",
"2  c #124B79",
"3  c #13507F",
"4  c #464749",
"5  c #4B4B4B",
"6  c #494744",
"7  c #4B4F51",
"8  c #5B5C5C",
"9  c #6C5D4B",
"0  c #6A5F53",
"q  c #645F56",
"w  c #6F604F",
"e  c #7E6844",
"r  c #6C6153",
"t  c #726654",
"y  c #7C6D53",
"u  c #73665B",
"i  c #616568",
"p  c #7C6E64",
"a  c #776E6B",
"s  c #7B706E",
"d  c #797A7B",
"f  c #826E45",
"g  c #886C48",
"h  c #857046",
"j  c #8C7346",
"k  c #867249",
"l  c #8B754B",
"z  c #8F7A4F",
"x  c #957646",
"c  c #937749",
"v  c #91794C",
"b  c #977746",
"n  c #8E7A53",
"m  c #857456",
"M  c #927C53",
"N  c #947E5A",
"B  c #8B7A64",
"V  c #82756A",
"C  c #8E7F68",
"Z  c #917D69",
"A  c #8B7D7C",
"S  c #867A76",
"D  c #9C8156",
"F  c #95815B",
"G  c #9B855D",
"H  c #978057",
"J  c #A1845B",
"K  c #9A8764",
"L  c #9C8963",
"P  c #95836D",
"I  c #9D8B6B",
"U  c #968474",
"Y  c #988579",
"T  c #A38E6A",
"R  c #A18963",
"E  c #A9926F",
"W  c #A39374",
"Q  c #A89573",
"!  c #A99A7C",
"~  c #A6977A",
"^  c #145C90",
"/  c #16649A",
"(  c #777D83",
")  c #7C8287",
"_  c #74828F",
"`  c #7E8489",
"'  c #7C8B9A",
"]  c #758491",
"[  c #848A8E",
"{  c #80868A",
"}  c #988782",
"|  c #9A8A8B",
" . c #968686",
".. c #858C92",
"X. c #888F95",
"o. c #84909B",
"O. c #8D949B",
"+. c #8B9197",
"@. c #91989E",
"#. c #92979A",
"$. c #AC9F83",
"%. c #A99F89",
"&. c #A09E97",
"*. c #AEA185",
"=. c #ADA18B",
"-. c #B3A285",
";. c #B5A68A",
":. c #B9AE98",
">. c #BBB19A",
",. c #A8A69D",
"<. c #8494A3",
"1. c #8C99A6",
"2. c #8B9CAB",
"3. c #959DA4",
"4. c #989EA3",
"5. c #929FA9",
"6. c #9CA1A6",
"7. c #9CA4AC",
"8. c #94A1AC",
"9. c #9EA9B1",
"0. c #96A3B0",
"q. c #AAADAF",
"w. c #A4A6A6",
"e. c #B0ABA0",
"r. c #A4ACB4",
"t. c #A9AFB6",
"y. c #A7AFB9",
"u. c #ABB3BC",
"i. c #AAB2B7",
"p. c #B2B4B5",
"a. c #BDBCB6",
"s. c #B1B7BD",
"d. c #B7BABC",
"f. c #BBBCBC",
"g. c #C0AE92",
"h. c #C6B8A1",
"j. c #CABFAA",
"k. c #C3BAA8",
"l. c #C1BEB3",
"z. c #C1BBBA",
"x. c #CBC0AD",
"c. c #CDC4B3",
"v. c #C7C3BA",
"b. c #CDC9BE",
"n. c #C9C5BE",
"m. c #D2CABB",
"M. c #D4C7B4",
"N. c #ADB6C1",
"B. c #A0B2C1",
"V. c #B3BCC4",
"C. c #BABEC3",
"Z. c #B5BEC8",
"A. c #B8BFC8",
"S. c #BCC1C5",
"D. c #B6C2CC",
"F. c #BDC4CB",
"G. c #BDC7D0",
"H. c #BCC9D3",
"J. c #C3C4C5",
"K. c #CDC9C3",
"L. c #C2C6CB",
"P. c #C4C9CE",
"I. c #CACBCD",
"U. c #C7C8C7",
"Y. c #D1CEC9",
"T. c #D0CBC0",
"R. c #CFD0CF",
"E. c #D6D3CC",
"W. c #C4CBD2",
"Q. c #CACED3",
"!. c #C7CFD8",
"~. c #CCD1D5",
"^. c #CDD3DA",
"/. c #D3D3D4",
"(. c #D2D6DA",
"). c #D4D9DD",
"_. c #DBDCDC",
"`. c #D8D7D6",
"'. c #E1DFDE",
"]. c #E2E1DC",
"[. c #ECE7DF",
"{. c #D6DCE3",
"}. c #DBDEE2",
"|. c #DDE1E5",
" X c #DCE2E9",
".X c #E4E4E4",
"XX c #E8E7E5",
"oX c #E4E6E9",
"OX c #E6EAEC",
"+X c #ECECEB",
"@X c #E6E8E6",
"#X c #F0EFEF",
"$X c #F1F0EE",
"%X c #EAEFF2",
"&X c #E5ECF1",
"*X c #EDF2F5",
"=X c #F5F5F4",
"-X c #F8F6F3",
";X c #FAFAF9",
":X c None",
/* pixels */
"z z z z z B Y U j H j H v b H v v H j H H k H H j H H H : j H h j H j H j H h H h H k H H ",
"z z z z l u S V H b b j b j b b v v H k H e H : f h k H H H j b x x b b c j H j H k H k H ",
"z z k z z k t n H j b j b b b j b z k z H H F I L I F H H b b b x x x x b j H H F n z H e ",
"v c z z z z z z b b b b b j b b v h H F *.a.F.I.R./.E.b.! H b b x x x x b H : j k a Y P H ",
"v x H e z z c c b j b b b b j j v z ! _.^.H.F.I.Q.(.}.|.$X[.! H x x j h k z v k h a [ | H ",
"v x v l h c c c v b v v v b v H H ! *X{.H.D.F.F.P.R._.].@X$X-Xh.H h j H H v x j v r a m H ",
"z x v z z j c c b v v v b H H h ! *X XH.D.V.D.F.I.R.)._.|.+X$X-X>.l l H l v j l v j j j j ",
"z c b z z z j c b j v b v h H G @X%X^.H.D.N.V.S.G.R.`.}.].@X$X-X-XL H l l H l l v v b H H ",
"z c c c H H : h c b v v v v H >.*X{.!.D.V.u.N.A.U.I.~.`.].@X+X=X;Xm.z z z z l k j l z v z ",
"z v v v j H H j : H v v j j H `.%X^.G.V.N.u.u.s.S.F.Q./._..X@X$X-X$XK l z l l z z z z z z ",
"z v c v H j v v H j v v h H ! *X X!.D.V.y.y.r.t.p.d.S.U./.`.@X+X=X;X:.z z l z z z z n z z ",
"z v v v l H l j j j H v H H ;.*X X!.Z.N.y.r.7...i 4 = = = 6 d p.+X;Xx.v z z z z z z v z z ",
"z z v z z z z H H j z z v z ! %X{.W.Z.N.y.+.- X             o o 5 $Xc.c z v z z z z z z z ",
"z z z z z z v l j H z z z z H ].{.H.V.N.[ o                     . d x.b b v v z z z z z z ",
"z v z z z z z H H k H z z v b j.{.W.Z.9.*     + $ + O   .     o . 6 :.c b c b c v n z z z ",
"z z z z z z z z h H k z v b b L (.!.F.(     + 1 / ^ , @ o # > > o 6 E b c c c c b c z z z ",
"z z n n F n z z v z v v c x x l w.!.L.X.      & > < 2 & & 2 / 2 @ r H c c c b c c c c l z ",
"z z z A | } n z n z v c R v.J.3._ r.W.V.7           O O # & @ o % P j c v c v c c c c j z ",
"z z k A |  .B z z k v M J._.(.!.0.' 5.V.r.- o           .   O o 8 H c c v c v c c c c M z ",
"z z l r u t z z z j v *.|.).W.~.B.( ] o.0.r.( *         o * % d G v z z v v v v v z z z n ",
"z z n z z z z z k l M _.|.^.P.Q.F.<.' ' <.1.1.3.] 8 ; - w.+X_.D.d.L z z z c z z z z n Y U ",
"z z z z z z z z h l *.*X).!.G.!.^.~.s.1.<.<.2.2.0.9.9.y.`.XX=X+XD.v.z z z l z l z z y A A ",
"z z z z z z z z e l b.OX(.P.H.~.F.W.F.V.y.3.<.2.y.H.^.!.R.].+X-X@Xb.z v l z z z z z f r y ",
"z z z z z z z z k H +XoX!.P.P.U.V.W.G.Z.u.9.1...' 0.y.s.J./.XX$X;Xx.j : e z z z z z n l n ",
"z z z z z z z z j ;.=X{.W.F.F.V.V.W.P.F.V.y.7.3.X.` ( ( a.U.).@X-X[.G j j c z z z z z z z ",
"z v z z z n z z j m.OX(.P.F.V.u.V.H.W.F.V.u.r.3.O...` ` q.f.U.].$X;XM.x j v z z z z z M z ",
"c b v z z z v z j ].oX^.F.F.r.u.S.H.!.F.S.s.r.6.@.X.` ` 6.p.J.R.XX-X-XD j l l l z b c v z ",
"z b v z v b b j D +X X~.P.S.r.s.S.W.!.F.S.V.i.7.3.+...` #.p.p.U.].+X;X*.h v j j x x c c z ",
"H c v z v c j : F *X}.Q.L.I.D.V.D.W.!.L.S.S.V.s.r.6.+.[ [ q.p.J.~.XX-Xx.l h h c c c c c z ",
"l c b z v z j c T *X{.W.f.a.F.D.F.!.~.P.F.F.J.L.F.f.q.@.[ w.p.a.U.'.$Xc.h v v v c z c z z ",
"z c c v z l v v Q &X).W.=.:.!.F.F.!.!.P.F.L.L.U.I.R.Q.f.4.6.p.p.n./.+X>.k z z z v v z v z ",
"z c c c l l v v Q OX(.U.L *.^.F.P.!.^.P.L.F.P.P.~./.`.`.S.7.p.f.S./.].n l z z z z v z z z ",
"z v v v l z v c G @X~.e.z K (.H.W.!.~.P.L.F.L.I.Q.(.'..X'.J.&.f.U.K.Q g l n n z z z z z z ",
"z v v h z z z z H Y.U.K z H ).W.W.^.~.W.L.L.P.I.Q.`..XoX+X'.T T %.K z z l h l z z z z z z ",
"z v j k z z c z z I W z z z b.!.!.~.~.W.P.L.L.I.R.)..XOX#XE.M z v z z z z z z n z z z z z ",
"z z j H z z z z z z z z z n >.).~.~.(.P.P.F.L.I./.)..X+X#X-.z l l z v c v c z M z z z z z ",
"z z z z z z z z z z z z z v T _.!.^.^.Q.P.L.U.I./.}.XX+Xc.N z l l v b x x x b c v n z z z ",
"z z z z z z z z z z z z z c b v.{.^.Q.!.P.L.P.I./.}.XXXXT z z z M c c b x x x x v v z z z ",
"z z z z z z z z k k h h c b j !  X{.Q.Q.P.L.I.Q./.}.XXh.z z z z c c c c c b c b b b v z v ",
"z h z z z z z z z z z c h h j v Y.}.(.Q.P.L.I.Q.`..Xl.N z z v c c c c c M Z Y N c v c v n ",
"z l z z z z v n z z c c v k h c G _.{.~.P.L.I./._.T.N z z z v c v c v c p  .| Z v c c z z ",
"z n z z z z z z z c z c z c h v v W R.).~.I.R./.z.N v z z v v v v v v l w a s m l h h l z ",
"m  .P n z z z z z v z v v c k v v v F :.T.Y.l.C y M z z z z v v v v v v e r t z z z z z k ",
"9 S | N z z z z z z v z z z l z v n v n v n v z z z z j g v z v n v z z z l z z z z z z z ",
"e 9 u n z z z z v n z z z z z l l l k l l z z z z z z z z z z z z z z z z z z z z z z z z ",
":X:X:X:X:X:X:X:X:X:X:X:X:X:X:X:X:X:X:X:X:X:X:X:X:X:X:X:X:X:X:X:X:X:X:X:X:X:X:X:X:X:X:X:X:X",
":X:X:X:X:X:X:X:X:X:X:X:X:X:X:X:X:X:X:X:X:X:X:X:X:X:X:X:X:X:X:X:X:X:X:X:X:X:X:X:X:X:X:X:X:X"
};
