/* XPM */
static char *result[] = {
/* columns rows colors chars-per-pixel */
"45 45 164 2 ",
"   c #131313",
".  c #171818",
"X  c #1A1B1B",
"o  c #151E20",
"O  c #1E2020",
"+  c #192528",
"@  c #1E2D32",
"#  c #222324",
"$  c #252728",
"%  c #262829",
"&  c #2B2C2C",
"*  c #2B2F30",
"=  c #2D3132",
"-  c #2A393D",
";  c #333434",
":  c #3C3C3C",
">  c #77643F",
",  c #1C414C",
"<  c #184654",
"1  c #184E5F",
"2  c #1D505F",
"3  c #3F4648",
"4  c #184F60",
"5  c #1D596A",
"6  c #245A6A",
"7  c #1C687F",
"8  c #1D657B",
"9  c #256477",
"0  c #24677A",
"q  c #424343",
"w  c #454748",
"e  c #4D4D4D",
"r  c #4E5051",
"t  c #5B5D5D",
"y  c #525354",
"u  c #6C5D4B",
"i  c #6A5F53",
"p  c #6F604F",
"a  c #7C6741",
"s  c #7E6847",
"d  c #6C6153",
"f  c #726654",
"g  c #7C6C53",
"h  c #73665B",
"j  c #5E6060",
"k  c #6E6F6F",
"l  c #626262",
"z  c #7C6E64",
"x  c #776E6B",
"c  c #7B706E",
"v  c #757879",
"b  c #787A7B",
"n  c #727474",
"m  c #836E45",
"M  c #8A6B47",
"N  c #816E4C",
"B  c #8B6E48",
"V  c #857046",
"C  c #8C7346",
"Z  c #867249",
"A  c #8B754B",
"S  c #8F7A4F",
"D  c #957646",
"F  c #987645",
"G  c #967847",
"H  c #937749",
"J  c #91794C",
"K  c #897751",
"L  c #8E7A53",
"P  c #88765C",
"I  c #847458",
"U  c #937C53",
"Y  c #997E55",
"T  c #927E5A",
"R  c #8B7A64",
"E  c #82756A",
"W  c #917D69",
"Q  c #827675",
"!  c #847977",
"~  c #8D7E77",
"^  c #8B7D7C",
"/  c #988056",
"(  c #95825C",
")  c #9A845D",
"_  c #968562",
"`  c #998663",
"'  c #9D8B66",
"]  c #96826E",
"[  c #9E8C6B",
"{  c #968474",
"}  c #968478",
"|  c #998579",
" . c #A18C6B",
".. c #A48B64",
"X. c #A4916E",
"o. c #A69675",
"O. c #AA9676",
"+. c #A79678",
"@. c #AA9A7D",
"#. c #1D7893",
"$. c #207791",
"%. c #2184A1",
"&. c #7F8080",
"*. c #848586",
"=. c #948486",
"-. c #988782",
";. c #998882",
":. c #978889",
">. c #9A8A8B",
",. c #9F9F9F",
"<. c #959595",
"1. c #AC9D83",
"2. c #ADA086",
"3. c #AEA38D",
"4. c #B1A287",
"5. c #B0A288",
"6. c #B7A98E",
"7. c #AEA798",
"8. c #B1A691",
"9. c #B6A991",
"0. c #BBAD95",
"q. c #B7AD9C",
"w. c #BCAF9B",
"e. c #A7A9A9",
"r. c #AFAFAF",
"t. c #A5A5A5",
"y. c #BAB2A3",
"u. c #B7B7B7",
"i. c #BBB5B3",
"p. c #BCBCBC",
"a. c #C2B49D",
"s. c #C2B8A5",
"d. c #C8BCA7",
"f. c #C6BEAE",
"g. c #C9BFAC",
"h. c #C4BFB6",
"j. c #C7C0B3",
"k. c #CDC4B4",
"l. c #C0C0BF",
"z. c #D5CCBE",
"x. c #C3C3C3",
"c. c #CEC7C0",
"v. c #C8C8C7",
"b. c #CBCBCB",
"n. c #D3CCC1",
"m. c #D0CDC8",
"M. c #D5D1CB",
"N. c #DBD5CA",
"B. c #D3D3D3",
"V. c #DAD7D5",
"C. c #DBD9D5",
"Z. c #DBDBDB",
"A. c #E0DEDB",
"S. c #E2DDD4",
"D. c #E4E2DE",
"F. c #E9E5DD",
"G. c #E4E4E3",
"H. c #EDEAE5",
"J. c #ECECEC",
"K. c #F0EFEC",
"L. c #F1F0EE",
"P. c #F4F4F4",
"I. c #F8F7F6",
"U. c #FAFAFA",
/* pixels */
"S S S S S R | { Z / Z / C / G / Z / > / Z / Z / / V / / V / V / H J S S S S V / / V / / S ",
"S S S S A h ! E / G G G F C F F G / V / / / / > > / V / / V G C D D F F J S / / V / / > S ",
"S S Z S / s f K C G D D F C F G C / / / ' ' ) C C / / V C G G C F F F H F / A V / ( / Z S ",
"J H S S K / J J / D D D F F C G ' j.A.H.P.K.K.F.z.@.V / G G G G H H F H H C > / s R *.{ S ",
"/ G / a S J J G G H D H G C / a.K.l.v r = & : t ,.D.z.) G G G G G H V A A S H A Z z } <.L ",
"C G A V V H H G D G H H G / k.G.j = = # O X . .   = u.C./ G / C G V H S S J H V C d z z S ",
"/ C G / J C J H C G D G D j.H.3 = = * o X X X .     X e.z./ C G H V S S S J Z H / C C / S ",
"/ D G S S S V H C / G / / L.j = 0 %.%.- X O @ 8 #.7 o # C.@.C G H A S S S S A A C / D C S ",
"V H D / S S J V J J G J j.m.$ - 0 6 2 5 + o 4 1 < 1 <   k V./ S C A J S S S A Z A A A S S ",
"/ C C C S S S J V C C / K.*.# $ % # X . X .             q V.o.A > m Z S S A A S S J J S S ",
"C / / C S S J S S C S X.P.&.O + O O                     3 V.9.V A S S S S A S S S S S S L ",
"/ C C / S S J S S J / @.L.m.% o X X                   . *.B.y.S S J S S S S S S S S S S S ",
"/ V J S / C S S S S S @.H.K.r.r O .               X ; *.V.B.q.S J L S S S L S S S S S S S ",
"/ C Z / V / Z / S S / o.D.J.G.Z.e.b l r 3 3 e j k <.b.B.B.b.8.S S S G D G G J S S S S S S ",
"/ V / Z / A / Z S S S / M.C.Z.Z.V.B.V.V.Z.Z.Z.V.Z.B.B.B.b.v.[ S S J D D G D G G J S S S S ",
"V / Z / V / V / S S S S X.b.b.B.B.B.B.B.B.B.B.B.B.B.b.v.x.2.S S J D H H D H H H G H L S S ",
"S S S T ( L S S S S J / +.y.b.x.x.v.b.b.b.b.b.b.b.x.p.l.B.3._ K H H G H H H H G H G J B S ",
"S L A ~ >.-.L S S S J @.J.Z.B.b.v.l.p.u.u.u.u.u.u.x.b.b.Z.G.C.U H G H H H J J H J H H A S ",
"L J N ^ >.=.R S S Z J n.I.G.Z.B.B.b.b.b.b.v.b.b.b.b.B.B.G.P.J.X.J J J H J H J H J H H U S ",
"S S A d h f S S A S +.b.b.P.L.J.J.G.G.G.G.G.G.G.G.J.P.P.P.J.V.y.) J S H J J J J J S S J S ",
"S S S S S S S S Z k.I.J.x.G.L.P.J.J.P.P.P.P.P.P.U.P.I.I.P.V.P.U.C.[ S S J S A S S S L } } ",
"S S S L L S S S K F.U.K.x.Z.P.P.P.L.J.P.J.P.P.P.I.I.I.I.L.Z.U.U.L.2.S J S A S C A S g ^ ^ ",
"S S S S S S S S _ H.U.P.x.Z.L.P.P.J.L.P.P.P.P.P.P.P.P.L.J.G.U.U.L.3.S S A S S S S S N i g ",
"S S S S S S S S _ H.U.J.x.Z.P.P.L.J.J.L.L.P.P.P.I.U.P.L.J.J.U.U.J.1.C a a S S S S S J S U ",
"S J S S S S S S ( F.I.J.l.A.P.I.P.J.P.J.P.P.P.I.P.U.P.J.J.G.U.U.G.1.G C C H S S L S S S S ",
"J J S S S S S S H D.I.J.x.Z.P.P.P.L.J.P.P.P.U.P.U.P.P.P.J.G.U.U.G.O.G D C H / J S S S L S ",
"J G J S S S J S C z.P.J.x.V.P.P.P.P.P.P.P.P.P.U.U.U.P.L.J.G.U.U.C.[ G G Z A Z A A G G J S ",
"J G J L H G G H H d.P.J.b.Z.L.P.P.P.P.P.P.U.U.U.U.P.P.L.J.G.U.P.m./ A V A A C C G G D H S ",
"J G J S H H H > V 0.P.L.b.B.P.P.U.P.P.P.U.U.P.U.U.P.P.L.G.G.U.P.j.S S A V V V J H H H J S ",
"S J G S S A A A H O.L.P.Z.Z.J.U.U.P.P.P.P.U.U.U.U.U.P.J.G.J.P.J.q.S S S V S G J J H H J S ",
"S H G J S A G A S / J.P.Z.B.J.U.U.P.U.P.U.U.U.U.U.U.P.J.Z.J.P.G.@.S A / V / S L J J S J S ",
"S H A G A A J J H J B.L.G.b.J.P.U.U.P.U.U.U.U.U.U.P.P.J.B.L.L.Z.) A A s A S S S J S S S S ",
"S J J A A S J H J S 6.L.J.b.G.U.U.I.I.U.U.U.U.U.U.P.P.G.B.J.J.x.J S A m S S S S S S S S S ",
"S J J V S S S S J A ` J.G.b.G.U.U.U.U.U.U.U.U.U.U.U.J.Z.V.G.Z.3.S S S S A V Z L S S S S S ",
"S J A A S J S J J J J k.G.b.V.P.U.U.U.U.U.U.U.U.P.P.J.B.B.Z.B._ S S S S L S A S S S L S S ",
"S J A S S S S S S S S o.G.v.B.L.I.U.U.U.U.U.U.U.P.P.G.x.V.B.7.A A L H H J H S U S J S S S ",
"S J S S S S S S S S S S j.l.A.P.P.P.U.U.U.U.U.P.P.G.G.Z.Z.i.( A A J D D D D G H S S S S S ",
"S / S S S S S S S S S S L [ w.P.P.P.P.P.I.P.P.J.J.G.D.C.+.T S S J G D H D D F H G S S S S ",
"S S S S S S S S Z V m V G G U M.P.P.P.P.P.P.L.J.G.Z.D.@.S S S S G H G H H H H H G G J / S ",
"S m S S S S S S S L S H V V C  .Z.P.J.J.J.J.G.G.Z.G.9.S S S S H J G J H U ] | U H A G J S ",
"J A S S S S S S S J H J H Z m G 1.A.J.J.G.G.Z.A.D.s.U J S S J J H J H H z :.>._ H A H S S ",
"S L S S S S S S S J J J S H Z J J +.n.G.G.G.G.V.i.T S K S J H J S J J A d x c I A V V A S ",
"I -.] L S S S S S J J J S H Z J J J ) 1.h.f.9.P g J U J K H J J J J J J s i f A J S S S A ",
"u Q >.T S S S S S S S S S S A S S J S S J U S S S U K H M S S J J S J S S Z S S S S S S S ",
"N u f K S S S S S S S S S S S S S S S S S S S S S S S S S S S S L S S S S S S S S S S S S "
};
