/* XPM */
static char *result[] = {
/* columns rows colors chars-per-pixel */
"45 45 64 1 ",
"  c #77643F",
". c #6C5D4B",
"X c #675D53",
"o c #6A5F53",
"O c #6F604F",
"+ c #7A6644",
"@ c #7F6945",
"# c #75634A",
"$ c #7A6648",
"% c #7E6B4A",
"& c #6C6153",
"* c #6C645C",
"= c #726555",
"- c #7C6C53",
"; c #73665A",
": c #7A6D5E",
"> c #6C6560",
", c #716965",
"< c #7C6E64",
"1 c #766D6A",
"2 c #786E6C",
"3 c #7B706D",
"4 c #836E45",
"5 c #8A6B47",
"6 c #816E4C",
"7 c #8B6E48",
"8 c #857046",
"9 c #8B7246",
"0 c #867249",
"q c #8B754B",
"w c #8F7A4F",
"e c #957646",
"r c #987645",
"t c #967847",
"y c #937749",
"u c #91794C",
"i c #847356",
"p c #897553",
"a c #8E7A53",
"s c #84745A",
"d c #927A53",
"f c #917D5D",
"g c #997E5D",
"h c #847566",
"j c #8B7A64",
"k c #82756A",
"l c #977F66",
"z c #917D69",
"x c #827675",
"c c #847977",
"v c #8D7E77",
"b c #8B7D7D",
"n c #938066",
"m c #95826E",
"M c #958375",
"N c #988270",
"B c #95837B",
"V c #998579",
"C c #948486",
"Z c #988782",
"A c #998882",
"S c #978789",
"D c #978889",
"F c #9A8A8B",
/* pixels */
"wwwwwjAMwwwwuuwwwwwwwwwuawwwwwwutuwtwwwwwwwww",
"wwwwq;chwurrrtreuwwuwwwq5wwwwueetttttwwwwwwww",
"ww0wa0=qureeteeetwwwwwww5wwwueee9tttttnqnnn9w",
"uywwwwwwyeeteeeetuwwwauuwwwwyeeetttu9q498kVnw",
"wrw8wuutyyettytyuwuuuteudnmgyyyttt999wu88sBFn",
"wrw98yyyyyyyyywwwutyttyuhFFVutyyt8qwnut99&,in",
"uyuww9uyyyyyyuwwwutyyyy6xSFvuyyyu8ww9t9uwt8n8",
"wytwww9yywyyuuwwwwuwuuu$>,1<uyuyu9wwwq0wwuttw",
"wyyuwwu9wuuyuywwwwwwwwuq$.#quywyu9wwwwq898uww",
"wyutwwuw89uuuuwwwwww9wwwawwuwyuq 88wwwqwnwwww",
"wwywwwuuywuuuwwwwwwwquwwwwuuuu048wwww0ww9uwww",
"wuuuwwwwwuwwwwwwwwwqwwwwwwwuw9wuuwwwwwwwwuwww",
"wuuuwwuuwwuuwwwwwww@0awwwwuq4wwwwwwuwwwwwwwww",
"wwwwwwwwwwwwwurreyqwqqwwwwwqwwwwwtttttwwwwwww",
"wuwwwwwwwwwwwureepntu0wwwwwwwwwwn9ttttttwwwww",
"wwwwwwwwwwwwutyy4;Zny8qqqwwwwwwwqttt9tutttwww",
"w0nannw0wwwuyyye9+=pee8wwwwwwwwuttu9ttttt9t9w",
"nn0MMmnnwwuyyyyq9yyyuuquwwwwwwuuututtuttn9t9q",
"9q0bVBaww8yuuuyuqqyqu9uwwwwwwuuutuuuquuu99tn0",
"wu0&>-wwq9uuuuuyq74uuwwwwwwwwuuuuuuuuuuutnt9n",
"wwwwuwwwqqwuwwww0 uuwwwwwwwwwwuwuqwuwwnttwwMM",
"wwwwu9ww%quwwwuw8qwwawwwwwwwqwwuwuwwu9980w0vc",
"wwwwqnt9 9n9wwwqwawwwwwwwwww8wwwuuut9wwwnw8&-",
"wwwwt9nn9rnrrtr9uuwwwwwwwwwwqwyt899  nww9uwwn",
"wwwwwwww9teree99twwwwwwwwwww89998tt99twwwwwww",
"wuwwwwww9tyeee9etuwawuwwwwwq9yr@8t9t8twwwwwww",
"utuwwwuu9tyteeqtuwwwutuuwuu8tee94ttt998tqtuww",
"utuwutt9yyyyeqyuwwuauyuwuMFmyyyt tt80n99ttttw",
"wtt9ut9 89qtyuaqwqqwwyuwhFFDuue48www888tttqww",
"wttnuu9uuy99qq8qq0wwayt62bCb$448ttww8wuuwttuw",
"wutuw9uuuywyywwwwwwwwyy4X***4uqquuww8wwwuuwqw",
"w99uwquuuyyuyuwwwwwwduyy0%%9utq9qq98wwwwwt9nw",
"wuuu9n9wtwtwt8wwwwwwwtutwwqwuuuuuqq8qwwwwwwww",
"wuu8wwtwtwwwwwwwwwwwwwuuq0uwuuuwuwww84qwwwwww",
"wu9quuuuwwqww9wwuwuuwwuuwquwuw9nwwww0n9nwwwww",
"wwuwu9nwwwwwwnttt9nuwwwwwwuwquu9qwtutttqwwwww",
"wwuwwwwwwwwwwuttttt99qwwwwwwwwwuqwtt9tttwwwww",
"wwwwwwwwwwwwutt89999twwwwwwwwwwwwttttttttuwww",
"wwwwwwww9888ttt89tttttwwwwwwwwwwttttt9tttt9ww",
"w8wwwwwwwwu9888tntqtuq9nwwwwwwwuuuttnnmnuuttn",
"wqwwwwwwwwuuu88tuuuu9uwMn9ww9nuuuuuu:DDnutuuw",
"wwwqwwwwwwuuuu8uuuuuuu hMnwwutuquuuq&13i9880w",
"wVnnn9wwwuuuwt8uuuuuuww 8n9tquwtuun90X wwwww9",
"&cMnuuwwwwwwwwqwuwwwwwwww9n98wwwuwwww0twwwwww",
" &=nwwwwwwwwwwwwn8quwwwwwwww0wwwwwwwwwwwwww9n"
};
