/* XPM */
static char *result[] = {
/* columns rows colors chars-per-pixel */
"45 45 173 2 ",
"   c #010101",
".  c #0A0603",
"X  c #030B05",
"o  c #0D0905",
"O  c #070C08",
"+  c #090F09",
"@  c #110A05",
"#  c #180E07",
"$  c #031409",
"%  c #071E0D",
"&  c #14110B",
"*  c #1B130B",
"=  c #111C0C",
"-  c #241409",
";  c #28160A",
":  c #2C190B",
">  c #331B0A",
",  c #3A1D0A",
"<  c #241E13",
"1  c #04220E",
"2  c #052C11",
"3  c #092810",
"4  c #063012",
"5  c #063F16",
"6  c #0A3D16",
"7  c #262115",
"8  c #282115",
"9  c #2C2518",
"0  c #242E1A",
"q  c #352C1D",
"w  c #382F1F",
"e  c #3A2614",
"r  c #3B3220",
"t  c #45230C",
"y  c #49240C",
"u  c #53290E",
"i  c #5C2C0F",
"p  c #4C2B12",
"a  c #56361A",
"s  c #602E0F",
"d  c #653010",
"f  c #693311",
"g  c #753B14",
"h  c #7D3E15",
"j  c #443A25",
"k  c #4D3E26",
"l  c #463B26",
"z  c #074017",
"x  c #074418",
"c  c #084518",
"v  c #0A4518",
"b  c #0C551B",
"n  c #0C5C1D",
"m  c #0D631F",
"M  c #2C462B",
"N  c #30492E",
"B  c #37412B",
"V  c #22582A",
"C  c #0F6B21",
"Z  c #0E6520",
"A  c #0F7023",
"S  c #107323",
"D  c #336035",
"F  c #31783B",
"G  c #7D4016",
"H  c #4D412A",
"J  c #504027",
"K  c #53472D",
"L  c #574B33",
"P  c #684B28",
"I  c #664C29",
"U  c #785026",
"Y  c #635539",
"T  c #6A5A3A",
"R  c #655335",
"E  c #725F3B",
"W  c #72603D",
"Q  c #7C663F",
"!  c #6C5D4B",
"~  c #6A5F53",
"^  c #446D41",
"/  c #6F604F",
"(  c #776240",
")  c #7A6642",
"_  c #7D6A44",
"`  c #75634A",
"'  c #6C6153",
"]  c #6C655F",
"[  c #726654",
"{  c #7C6C53",
"}  c #73665B",
"|  c #7A6D5E",
" . c #7C6E64",
".. c #766D6A",
"X. c #716965",
"o. c #7B706D",
"O. c #804016",
"+. c #834418",
"@. c #8B4719",
"#. c #8C491A",
"$. c #924C1A",
"%. c #9C551F",
"&. c #92501E",
"*. c #A4591F",
"=. c #A85B1F",
"-. c #A95B21",
";. c #80653D",
":. c #AE6122",
">. c #B06122",
",. c #B66E2C",
"<. c #B86B29",
"1. c #B66927",
"2. c #BD712C",
"3. c #C57B32",
"4. c #836D44",
"5. c #8A6B47",
"6. c #816E4D",
"7. c #8B6E48",
"8. c #857046",
"9. c #8C7246",
"0. c #867249",
"q. c #8B754B",
"w. c #8F7A4F",
"e. c #957646",
"r. c #967847",
"t. c #937749",
"y. c #91794C",
"u. c #987645",
"i. c #887651",
"p. c #8E7A53",
"a. c #847458",
"s. c #927B54",
"d. c #917D5D",
"f. c #867767",
"g. c #8B7A64",
"h. c #82756A",
"j. c #917D69",
"k. c #827675",
"l. c #8B7D7C",
"z. c #897C77",
"x. c #298F3A",
"c. c #3EA14B",
"v. c #538350",
"b. c #4AA854",
"n. c #4AA653",
"m. c #5BB361",
"M. c #7DC879",
"N. c #C78035",
"B. c #CE873B",
"V. c #938066",
"C. c #95826E",
"Z. c #958375",
"A. c #95837B",
"S. c #998579",
"D. c #CE8B40",
"F. c #C59048",
"G. c #CD9049",
"H. c #DD9948",
"J. c #CC9753",
"K. c #E2A24D",
"L. c #EAAB54",
"P. c #C1A976",
"I. c #E9B463",
"U. c #E7BE78",
"Y. c #83CD7E",
"T. c #948485",
"R. c #988782",
"E. c #978789",
"W. c #978889",
"Q. c #9A8A8C",
"!. c #998882",
"~. c #E7C280",
"^. c #E5CA8E",
/* pixels */
"w.w.w.w.w.g.!.Z.w.w.w.y.y.y.w.w.w.w.w.w.w.w.w.w.w.w.w.w.w.w.w.y.r.w.y.9.V.9.w.w.w.w.w.w.w.",
"w.w.w.w.q.} z.f.w.t.r.u.t.r.u.u.t.w.w.w.w.w.w.q.5.q.w.w.w.y.r.t.r.r.r.r.r.r.w.w.w.w.w.w.w.",
"w.w.0.w.w.{ ` i.y.r.u.u.u.u.e.e.r.w.w.w.w.w.y.q.7.w.w.w.y.u.t.u.r.r.r.r.r.r.V.9.s.s.V.q.w.",
"y.t.w.w.w.w.w.p.t.e.t.t.t.u.t.e.r.w.w.w.w.s.y.y.s.w.w.w.r.t.u.t.9.r.r.r.9.y.Q y.q.m.S.V.p.",
"V.;.w.8.w.w.r.r.t.t.t.t.t.r.r.t.y.w.y.y.r.r.t.y.p.V.Z.s.t.t.t.t.9.r.9.9.q.w.w.9.q. .E.Q.s.",
"r.r.y.0.9.e.t.t.t.t.r.t.t.y.y.w.w.y.r.r.t.y.t.y.f.Q.Q.A.t.t.t.t.r.8.y.w.w.r.9.9.t.! ..h.p.",
"V.,.y.w.y.9.y.t.t.t.t.t.t.y.w.w.w.y.r.y.r.t.t.{ k.E.Q.A.y.t.t.t.9.w.w.w.w.y.w.9.t.t.5.q.w.",
"8.V.e.w.w.w.9.y.t.t.y.t.y.y.w.) R R Y Y 4.t.R Y ] X...| t.r.y.t.y.q.w.w.w.w.8.w.y.y.t.y.w.",
"9.r.r.r.w.w.r.8.y.y.r.w.y.y.w.H         L w.  w ` ! ` q.y.y.y.y.9.9.V.w.w.w.q.8.9.8.y.w.V.",
"V.9.9.r.w.w.w.y.8.9.y.w.y.8.q B ^ ^ D 5 0 q   r s.J q q R q.y.t.Q 8.8.9.w.9.q.w.V.w.w.w.9.",
"V.r.r.r.w.w.y.y.y.y.y.y.y._ . M M.M.m.S 1     r p.8   X k y.0.4.8.w.w.w.w.q.w.w.9.y.9.w.r.",
"9.9.9.V.w.w.w.y.y.w.y.y.8 O Y.c.S S Z 5 z z       v.Y.Y.N   ) y.y.w.w.w.w.w.w.w.w.y.9.V.y.",
"y.y.y.w.w.w.w.w.w.y.w.w.6 + n.x.S m b 5 2 1     $ F b.b.V % H T y.w.w.y.w.w.w.w.w.w.w.w.r.",
"w.w.y.w.w.w.w.w.w.w.w.w.8 X S S S v 5 5 $     $ z C S S A S X 8 y.y.r.r.r.r.w.w.w.w.w.w.r.",
"w.w.w.w.w.w.w.w.w.w.w.w.8 X S n c z 2 X K ) X $ 5 x c S S S X 7 V.8.r.r.r.r.r.r.w.w.w.w.V.",
"w.w.w.w.w.w.w.w.w.w.w.w.8 X b z 4 2 1   k T   X 2 5 x C A S X 7 y.r.r.r.9.r.y.r.r.r.w.w.;.",
"w.w.p.s.V.p.w.w.w.w.w.y.8                         2 z z b S X 8 r.r.y.r.r.r.r.y.r.r.V.;.V.",
"w.w.w.z.Q.!.p.w.w.w.y.y.8 o K 9   L Y P a p @ - p = $ $ 6 S X 8 y.r.9.r.9.V.y.r.9.r.r.r.q.",
"w.w.0.l.W.T.f.w.w.9.y.y.9 * y.J   P.~.L.3.:.- p -.* .   3 S + 9 y.9.y.y.r.r.w.r.w.r.9.V.q.",
"w.w.0.' } { w.w.w.0.y.y.y.y.w.J   F.H.:.s , , , , #.=.d ;   Q w.y.y.y.y.9.r.w.w.r.w.9.r.V.",
"w.w.w.w.w.w.w.w.0.q.w.w.w.y.w.T r P U $.d y : , y G +.> e r 8.w.y.y.w.y.y.w.V.r.q.V.V.V.C.",
"w.w.w.w.w.w.w.w.8.q.w.w.y.w.y.w.8.& @ d d d - > d d u   j w.w.w.w.y.w.y.w.9.9.9.9.9.i.Z.A.",
"w.w.w.w.w.w.w.w.4.q.w.w.y.w.w.q.q.& . : , t > , t , ;   j y.w.w.y.w.w.w.9.w.w.w.w.w.8.^ { ",
"w.w.w.p.w.w.w.w.8.w.r.u.r.r.r.;._ * o : , y t t t > ; . j ) t.r.9.8.8.Q 8.w.w.w.w.w.V.9.i.",
"w.w.w.w.y.w.w.w.0.r.u.e.e.e.9.k   u g >.>.>.>.>.:.>.-.d ;   W 9.9.u.u.9.;.r.w.w.y.w.w.w.w.",
"y.y.w.w.p.w.w.w.9.u.t.u.t.e.9.J   g *.B.G.J.J.J.J.D.N.#.>   ;.;.9.u.r.9.r.r.w.w.p.w.w.y.w.",
"y.r.y.w.w.w.y.w.9.t.t.t.t.t.t.J   &.2.L.U.^.^.^.^.I.K.>.t   ;.t.Q V.r.r.9.9.8.9.w.y.t.y.p.",
"y.r.y.w.t.r.t.y.t.u.t.t.e.;.& ; u *.>.<.,.,.,.,.,.<.1.>.G u * q Q r.9.9.0.V.9.9.u.t.t.y.y.",
"w.t.w.w.t.t.t.W 4.q.t.y.t.4.  - d =.-.>.>.>.>.>.>.>.>.>.#.d . < ;.u.V.9.0.8.9.y.t.t.t.y.w.",
"w.t.r.w.w.q.y.t.t.t.9.9.9.Q   - d =.>.>.>.>.>.>.>.>.>.>.#.d . < u.V.r.r.9.w.y.y.y.t.t.y.w.",
"w.t.t.r.w.9.y.y.y.t.y.y.y._   ; d G #.:.-.>.>.>.>.>.=.O.g f . 7 V.;.9.V.8.w.w.w.y.y.y.y.w.",
"w.t.w.r.q.0.y.y.t.y.t.t.y._   - i i f *.%.%.*.%.%.*.&.i i i . < 9.y.9._ 0.w.w.w.w.y.w.w.w.",
"w.y.y.y.q.w.y.y.y.y.w.w.t.Q   o ;   o ; @   ; # . # -   @ ;   7 y.w.q.4.q.p.w.w.w.w.w.p.w.",
"w.y.t.8.w.w.w.w.y.w.r.w.w._   . @     # .   @ .   o @   . @   7 w.y.w.p.q.0.q.w.w.w.w.w.w.",
"w.t.q.0.w.y.w.y.w.y.w.y.y._ .                                 7 w.w.w.w.y.w.q.s.w.w.w.w.w.",
"w.w.w.w.w.w.w.w.w.w.w.w.w.q.W W E E W W E E E ! E W W E W T W Q q.y.y.y.y.y.w.s.w.w.w.w.w.",
"w.w.w.w.w.w.w.w.w.w.w.w.w.y.r.r.u.e.t.w.q.w.w.w.p.w.w.w.p.w.w.q.q.y.r.u.t.t.r.y.y.p.w.w.w.",
"w.w.w.w.w.w.w.w.w.w.w.w.y.r.t.9.9.9.9.9.t.y.w.w.w.w.w.w.w.w.p.w.y.t.r.r.t.u.e.r.r.y.w.w.w.",
"w.w.w.w.w.w.w.w.0.8.4.0.t.r.t.9.t.r.t.t.t.t.y.s.w.w.w.w.w.w.w.y.t.t.t.t.t.r.e.e.y.r.y.y.w.",
"w.5.w.w.w.w.w.w.w.w.y.t.8.4.9.9.y.t.t.t.t.t.t.p.w.w.w.w.w.w.y.y.t.t.t.t.y.C.S.s.t.y.y.y.w.",
"w.q.w.w.w.w.w.w.w.y.y.y.y.9.4.y.y.y.y.t.y.y.q.Z.j.w.y.w.p.y.y.y.y.t.y.t. .W.Q.V.y.y.y.w.w.",
"w.s.w.w.w.w.w.w.w.y.y.y.y.y.8.t.y.y.t.y.y.y.` o.T.p.p.w.y.y.y.y.y.y.y.y.' ..o.6.9.8.8.q.w.",
"a.R.C.w.w.w.w.w.w.y.y.y.y.y.0.y.y.y.y.y.w.w.q.) { y.w.w.q.y.y.y.y.y.y.y._ ' [ w.y.w.w.w.q.",
"! k.W.d.w.p.w.w.w.w.y.w.p.w.q.y.w.y.w.w.w.p.w.w.w.w.w.q.5.s.y.q.s.q.q.w.w.q.w.w.y.p.w.w.w.",
"6.! [ p.w.w.w.w.w.w.w.w.w.w.w.w.w.w.w.w.y.w.w.w.w.w.w.w.q.s.w.w.w.w.w.w.w.w.w.w.w.w.w.w.w."
};
