/* XPM */
static char *result[] = {
/* columns rows colors chars-per-pixel */
"45 45 164 2 ",
"   c #020201",
".  c #0A0704",
"X  c #0A0806",
"o  c #0D0B0A",
"O  c #140C07",
"+  c #110E0B",
"@  c #15120D",
"#  c #1D120B",
"$  c #161513",
"%  c #1A1613",
"&  c #1E1A16",
"*  c #1F1B19",
"=  c #24160D",
"-  c #25190E",
";  c #28190E",
":  c #231C13",
">  c #2F1D10",
",  c #221E1B",
"<  c #272115",
"1  c #2B2315",
"2  c #26211D",
"3  c #2A231C",
"4  c #362313",
"5  c #3B2614",
"6  c #3E2916",
"7  c #302718",
"8  c #352D1C",
"9  c #3C2D1C",
"0  c #3B311E",
"q  c #262420",
"w  c #2C2622",
"e  c #2C2926",
"r  c #2E2D2A",
"t  c #322A25",
"y  c #362E29",
"u  c #382F29",
"i  c #3A3222",
"p  c #34312D",
"a  c #3B322C",
"s  c #373532",
"d  c #393733",
"f  c #3D3A34",
"g  c #3E3C3A",
"h  c #422C1A",
"j  c #4B2E1A",
"k  c #42321E",
"l  c #4B311D",
"z  c #53341D",
"x  c #59371E",
"c  c #443622",
"v  c #453925",
"b  c #483C26",
"n  c #443B29",
"m  c #4B3F28",
"M  c #5D3B20",
"N  c #443C35",
"B  c #4A3E36",
"V  c #643F22",
"C  c #4D432E",
"Z  c #534329",
"A  c #584629",
"S  c #57492E",
"D  c #584A2F",
"F  c #47423B",
"G  c #4D433B",
"H  c #5A4C31",
"J  c #53473E",
"K  c #5D5034",
"L  c #654123",
"P  c #6A4325",
"I  c #614D2D",
"U  c #714527",
"Y  c #704827",
"T  c #734A28",
"R  c #7A4E2A",
"E  c #7F522C",
"W  c #645233",
"Q  c #6A5535",
"!  c #6C5836",
"~  c #67583C",
"^  c #6C5C3B",
"/  c #715D39",
"(  c #74623E",
")  c #79643E",
"_  c #484642",
"`  c #4F4A42",
"'  c #534944",
"]  c #594B42",
"[  c #5E5046",
"{  c #5B564D",
"}  c #5E594F",
"|  c #505050",
" . c gray36",
".. c #6C5D4C",
"X. c #645B53",
"o. c #695C55",
"O. c #776645",
"+. c #7A6640",
"@. c #7E6A43",
"#. c #76654D",
"$. c #7F6E4E",
"%. c #676156",
"&. c #6C6255",
"*. c #65615C",
"=. c #6E6459",
"-. c #726454",
";. c #7D6D55",
":. c #72645C",
">. c #72695E",
",. c #7A6B58",
"<. c #6C6963",
"1. c #736C61",
"2. c #786A62",
"3. c #776D6B",
"4. c #7C7266",
"5. c #804E2C",
"6. c #83552D",
"7. c #84673D",
"8. c #84683F",
"9. c #826C44",
"0. c #8A6D43",
"q. c #836E4A",
"w. c #8B6D48",
"e. c #8B7246",
"r. c #86724A",
"t. c #8C754B",
"y. c #8F7A4F",
"u. c #957646",
"i. c #987645",
"p. c #957847",
"a. c #937749",
"s. c #91794D",
"d. c #826E55",
"f. c #837252",
"g. c #8B7551",
"h. c #8E7A52",
"j. c #85755B",
"k. c #897659",
"l. c #927A54",
"z. c #927D5B",
"x. c #807065",
"c. c #8D7B63",
"v. c #83756A",
"b. c #87786B",
"n. c #917D61",
"m. c #917F6C",
"M. c #837674",
"N. c #827A76",
"B. c #8D7D73",
"V. c #8B7D7C",
"C. c #95826C",
"Z. c #8F837B",
"A. c #958374",
"S. c #95847B",
"D. c #938484",
"F. c #988681",
"G. c #928E86",
"H. c #998882",
"J. c #978788",
"K. c #99898B",
"L. c #B2A795",
"P. c #B6AB99",
"I. c #BBAF9D",
"U. c #C4B8A5",
/* pixels */
"y.y.y.y.y.c.S.A.y.y.y.p.y.p.C.p.p.y.y.y.y.y.y.y.y.y.y.y.y.y.y.y.p.t.C.e.p.t.y.y.y.y.y.y.y.",
"y.y.y.y.t.:.N.b.t.p.p.p.p.p.p.p.p.t.C.y.y.y.y.t.0.t.y.y.y.s.p.p.p.p.p.i.p.t.y.y.y.y.y.y.y.",
"y.y.y.y.h.h.A.S.C.e.C.p.p.p.^ 8 8 8 1 8 8 0 0 8 v ^ s.y.y.y.s.s.p.y.p.e.y.y.C.y.y.y.y.C.y.",
"s.y.y.y.y.f.4.v.p.p.i.i.p.) m o X X X o . . . . @ D r.q.e.i.i.i.p.p.p.C.y.y.e.p.y.y.Z.C.y.",
"s.s.y.y.y.t.$.f.i.i.i.i.8.7 F *.r + j x x x x x z 9 1 1 A e.i.i.e.p.p.y.y.y.h.j.C.p.G.G.C.",
"s.s.p.t.t.y.y.y.C.p.p.7.) X _ G.f # L E 5.5.5.5.U > . O k ! 0.u.p.p.p.r.r.y.j.Z.Z.y.4.j.C.",
"s.s.p.t.t.t.p.p.p.p.i.8.8.o F G.f - L E 5.5.5.5.U > = x l < ! e.e.t.y.y.r.t.$.N.Z.y.9.t.e.",
"p.C.p.s.t.t.t.p.p.p.p.C.) X p  .r @ L E 5.5.5.5.U > ; P l . W e.p.y.y.y.t.t.r.r.h.C.p.t.e.",
"t.C.7.i.t.t.t.p.p.p.y.p.) X o $ X # V 5.5.5.5.5.U > ; V j . Q w.y.y.y.t.t.y.p.t.y.y.y.y.y.",
"C.8.p.p.p.e.t.t.t.p.p.y.) X . .   = P 5.5.5.5.R U > > V j . W a.y.y.y.t.r.e.e.y.y.y.y.y.y.",
"p.e.p.p.p.C.y.p.e.t.y.t.) X X X   = V 5.5.5.E E U > = V j . D 9.t.y.y.t.y.y.y.y.y.y.y.y.y.",
"y.C.p.p.y.y.y.y.y.y.p.y.) X s <.e # P 5.5.z - # = . . # 9 H 9.s.y.y.y.t.y.y.y.y.y.y.y.y.y.",
"y.y.e.p.p.t.p.y.t.y.s.y.9.@ F N.s # M U T h O     . + o c 9.s.l.y.y.y.y.y.y.y.y.y.y.C.e.y.",
"y.y.C.p.y.y.y.y.y.y.y.s.y.( C $ o   O O O v ( i o C ( ( 9.y.y.y.y.p.y.y.y.y.y.p.y.y.C.t.y.",
"y.y.y.y.y.y.y.y.y.y.y.y.y.p.I : & = : : % D r.C O D t.h.y.y.y.s.p.p.p.e.y.y.C.t.y.y.e.e.y.",
"y.y.y.y.y.y.y.y.y.y.y.y.y.p.p.p.w.n.z.s.r.t.@.n @ D t.y.y.h.y.p.p.p.p.p.p.p.p.y.y.y.y.t.y.",
"t.p.t.t.t.C.y.y.y.y.l.s.p.a.u.u.$.3.n.s.w.! b c h c K q.s.s.s.u.p.p.p.p.p.e.p.C.e.p.p.r.y.",
"y.e.C.C.C.C.c.y.y.y.y.s.s.a.a.e.w.q.g.a.9.c # c V 5 5 ..r.s.s.u.y.p.p.t.C.p.t.p.e.p.p.e.y.",
"y.y.e.r.Z.Z.C.y.y.t.s.s.a.s.a.t.a.s.a./ 8 h M U 5.V V 4 S e.s.u.p.y.y.p.e.p.p.p.p.y.p.C.y.",
"y.y.C.f.1.4.y.y.t.e.p.s.t.+.@.+.+./ +.Z . 4 V U V V z O 8 / +.@.t.p.y.y.p.p.t.y.C.y.e.e.y.",
"y.y.y.y.r.C.9.y.t.t.y.y.9.@ @ @ + + + +   . O O O O X   . + # @ +.y.y.p.y.t.e.C.C.C.C.C.C.",
"y.y.y.y.p.e.p.t.r.t.t.O.~   o , , , & & * +   + , * * * * * o   ( y.y.y.t.e.t.r.b.c.$.N.Z.",
"y.y.y.y.e.C.8.C.r.t.q.O     y =.:.:.:.=.:.s . N :.:.:.:.:.:.*   ( p.y.y.y.y.t.e.%.@.r.( $.",
"y.y.y.y.p.p.C.y.$.^ ! f s   q ` ' ' ' ' ' B f _ ' X.:.:.:.:.,   m W @.y.y.y.e.p.C.e.C.9.y.",
"y.y.C.p.t.y.y.e.^ < $ I.P.$ o   o o     + >.U.' o N o.o.o.o.,   X - / t.C.e.y.C.y.y.y.y.y.",
"y.y.p.y.t.y.y.K p g g } } 4.F o ` X.$ e 4.>.{ 2 . & t t r r o   6 l 0 I C.e.t.p.y.y.y.y.y.",
"p.p.p.y.C.p.p.8 o |  .o $ P.%.@ 1.Z., f L.}       X O O O O     Y L @ 7 7.p.p.p.p.C.t.p.y.",
"y.y.p.y.e.t.p.8 o |  .o o g 2   e p o $ g ,     . 5 M M M x #   I L O 8 e.p.p.e.p.t.p.p.y.",
"y.p.p.y.p.p.t.8 + |  .o     O - - # . X = % % % , h P 6.6.6.>   Y L @ 7 p.y.y.p.p.y.p.y.y.",
"y.y.t.p.y.t.t.8 + |  .o     4 Y Y z + $ B B J G B 1 4 T 6.6.;   Y L @ 8 y.p.y.p.y.y.y.p.y.",
"y.y.p.y.y.e.t.I v d d v 0   6 E M 4 X & ] X.] X.J , O 6 M E ;   Y L @ 8 y.y.y.y.y.y.t.p.y.",
"y.y.p.p.t.y.y.y.( : @ 9.)   6 R 4 .   & J [ [ ] J ,     5 R ;   I A @ 8 y.y.y.y.y.y.y.y.y.",
"y.y.y.y.e.y.y.y.e.K D t.@.X @ 7 t u u w , 3 2 2 2 r u u t 4 O   P L O 8 t.h.y.y.y.y.y.y.y.",
"y.y.y.t.t.y.y.y.y.y.y.y.@.o X X u ] ] N X . . . + a ] ] t .     L L @ 0 y.y.y.y.y.y.y.h.s.",
"y.y.p.y.y.y.y.y.y.y.y.p.@.  .   . o + , B B ' B B 2 + + .       O < ! 9.h.y.y.y.y.y.y.y.y.",
"y.y.y.y.y.y.y.y.y.y.y.y.@.      o +   % ] [ [ [ ' ,   + o       @ 9 8.i.p.p.y.l.y.y.y.y.h.",
"y.y.y.y.y.y.y.y.h.t.t.t.@.    X r n o , J [ [ [ J , % N w .     Q 8.u.i.i.a.s.s.e.p.p.p.y.",
"y.y.t.y.y.y.y.p.t.t.r.t.)     X u B o , [ [ [ [ J , % ' u .     ) p.l.z.l.s.u.s.p.e.C.C.y.",
"y.y.e.y.y.y.y.e.h.y.y.a.)     X u B + : J ..X.J J , % B u .     ) t.c.F.A.l.s.p.C.e.C.8.y.",
"y.y.y.y.y.y.y.C.y.y.p.y.e.b <   % w w t w 3 w w 3 t w w %   t m 0.t.2.M.b.g.e.w.e.p.p.s.y.",
"y.j.C.C.y.y.y.y.y.y.s.s.p.q.C . . $ N a . .     o y a + X X W r.t.9.O.%.r.y.t.t.y.e.y.y.y.",
"y.#.N.S.l.y.y.y.y.y.y.s.h.t.) D < . @ +           + $   1 H 9.y.y.p.C.r.y.y.y.y.C.t.9.y.y.",
"j.@...,.y.y.y.y.y.y.y.y.y.y.y.q.8                       i 9.y.y.y.y.y.y.y.y.y.y.e.y.t.y.t.",
"..N.H.C.y.y.y.y.y.s.y.s.y.y.t.y.s.y.y.y.y.y.y.y.y.y.h.t.w.y.s.y.p.y.y.y.y.r.y.y.t.y.p.y.y.",
"@...-.h.y.y.y.y.y.y.y.y.y.y.y.y.y.y.s.h.y.y.y.y.y.y.y.y.y.h.y.y.C.e.p.y.y.y.y.y.y.y.y.y.y."
};
