/* XPM */
static char *result[] = {
/* columns rows colors chars-per-pixel */
"45 45 151 2 ",
"   c #030201",
".  c #0C0A05",
"X  c #0D0D0C",
"o  c #160000",
"O  c #130F01",
"+  c #1A160D",
"@  c #131313",
"#  c #1F1B14",
"$  c #1B1A1A",
"%  c #330001",
"&  c #241E13",
"*  c #2B2316",
"=  c #332B1C",
"-  c #3B2F1D",
";  c #3A311F",
":  c #212121",
">  c #2D2C2C",
",  c #312D2B",
"<  c #3A3222",
"1  c #353535",
"2  c #3C3936",
"3  c #400001",
"4  c #5A0000",
"5  c #740001",
"6  c #463C28",
"7  c #524305",
"8  c #665306",
"9  c #7F6708",
"0  c #786207",
"q  c #52442B",
"w  c #494133",
"e  c #5A4C34",
"r  c #574E3D",
"t  c #5D5038",
"y  c #645333",
"u  c #655539",
"i  c #6E5B39",
"p  c #76633E",
"a  c #7A633C",
"s  c #031458",
"d  c #3B3F4E",
"f  c #172B7C",
"g  c #364550",
"h  c #424242",
"j  c #484848",
"k  c #484745",
"l  c #535353",
"z  c #595959",
"x  c #6C5D4B",
"c  c #6A5F53",
"v  c #6F604F",
"b  c #796544",
"n  c #7D6944",
"m  c #6C6153",
"M  c #726654",
"N  c #7C6C53",
"B  c #73665B",
"V  c #636363",
"C  c #6D6D6D",
"Z  c #7C6E64",
"A  c #776E6B",
"S  c #77706D",
"D  c #737373",
"F  c #7C7C7A",
"G  c #8D0001",
"H  c #D20001",
"J  c #FF0001",
"K  c #957909",
"L  c #81693F",
"P  c #836E45",
"I  c #8A6B47",
"U  c #8B6E48",
"Y  c #816E4C",
"T  c #867046",
"R  c #8C7346",
"E  c #867249",
"W  c #8B754B",
"Q  c #8F7A4F",
"!  c #957646",
"~  c #937749",
"^  c #91794C",
"/  c #977746",
"(  c #8A7453",
")  c #8E7A53",
"_  c #84735A",
"`  c #847356",
"'  c #927B54",
"]  c #917D5D",
"[  c #8B7A65",
"{  c #82756A",
"}  c #917D69",
"|  c #8B7D7C",
" . c #867A76",
".. c #9D800A",
"X. c #DAB10D",
"o. c #E5BA0E",
"O. c #F1C40F",
"+. c #96826E",
"@. c #968474",
"#. c #95837B",
"$. c #998579",
"%. c #122A8A",
"&. c #324399",
"*. c #2E4AB9",
"=. c #3657AC",
"-. c #555A88",
";. c #133AC2",
":. c #002AD1",
">. c #1238D1",
",. c #0235FF",
"<. c #0A3CFD",
"1. c #0938F5",
"2. c #344DC1",
"3. c #1B4CFB",
"4. c #1244FC",
"5. c #2757F9",
"6. c #3565F6",
"7. c #4464D1",
"8. c #5379DF",
"9. c #4066FF",
"0. c #4574F3",
"q. c #4A79F3",
"w. c #608DEF",
"e. c #6592EE",
"r. c #828282",
"t. c #8F8182",
"y. c #8C8C8C",
"u. c #898987",
"i. c #948486",
"p. c #988782",
"a. c #9A8A8B",
"s. c #988886",
"d. c #989898",
"f. c #939393",
"g. c #A09F9F",
"h. c #A6A6A6",
"j. c #A9A9A9",
"k. c #B5B5B5",
"l. c #BBBBBB",
"z. c #93BEE6",
"x. c #97C1E6",
"c. c #9BC5E5",
"v. c #C4C4C4",
"b. c #CACACA",
"n. c #D3D3D3",
"m. c gainsboro",
"M. c #E5E5E5",
"N. c #EBEBEB",
"B. c #ECF0FF",
"V. c #F3F3F3",
"C. c #FFFFFF",
/* pixels */
"Q Q Q Q Q [ $.@.) ^ Q ^ ^ ^ ~ Q Q Q Q Q Q Q Q ) Q Q Q Q Q ) Q ^ ^ ^ ^ Q Q Q +...+.L +...) ",
"Q Q Q Q W B  .{ ) ~ / / / / ! ! ~ Q Q Q Q Q Q R I W Q Q ^ ^ / ! ! ! ! / ~ Q L +.T +.+.` ) ",
"Q Q E Q ) n M ) ^ / ! ! / ~ ! ! ~ Q Q Q ( Q Q W U W ' Q Q / ! ! ! ! ! ! ! ~ W L +.+.E +...",
"^ ~ Q Q Q Q Q Q ~ ! ! ! ~ / ! * . .   . .   . . .   E Q ~ ! ~ ! ! ~ ! ! ! ^ T +.a Z @.+.+.",
"Q ~ +.L Q ^ ^ ~ ~ ~ ~ ! ~ ~ ~ & % G G G G G G G 5   [ ] ~ ~ ~ ! ~ ! R R W Q W R L N p.a.+.",
"Q Q ..L R ~ ~ ~ ~ ~ ~ ~ ~ ~ ^ & 4 J J J J J J J H   t.#.~ ~ ~ ~ ~ T W Q Q ^ / R +.b S Z R ",
"Q ~ ~ +.Q R ~ ~ ~ ~ ~ ~ ~ ^ Q & 4 J J J J J J J H   t.#.~ ~ ~ ~ ~ R Q Q Q ^ R W L W T ^ +.",
"Q ~ / Q Q Q R ^ ~ a * & & & # . o % 3 3 3 3 3 3 %   $ # & & & * & E Q Q Q Q E Q ..+.Q ^ L ",
"Q ~ ~ ~ Q Q ~ W p e z z z z z k j z z z z z z z z z z z z z z z z e P Q Q Q E E R W W Q Q ",
"Q ~ ~ ~ Q Q ^ p w l C.C.C.C.C.n.n.N.C.C.C.C.C.C.C.C.C.C.C.C.C.C.C.1 t n Q Q W Q Q Q Q Q Q ",
"Q ^ Q ^ Q Q Q . u.V.C.C.C.C.C.C.M.l.C.C.C.C.C.C.C.C.C.C.C.C.C.C.C.V.k = Q E Q Q Q Q Q Q Q ",
"Q ^ ^ ^ Q Q Q . y.C.C.C.C.C.C.C.M.k.C.C.C.C.C.C.C.C.C.C.C.C.C.C.C.C.k = Q Q Q Q Q Q Q Q Q ",
"Q Q ^ Q Q ^ Q   y.C.C.C.C.C.C.C.M.k.C.C.C.C.C.C.C.C.C.C.C.C.C.C.C.C.k = Q ^ Q Q Q Q Q Q Q ",
"Q Q ^ ) Q Q Q . y.C.C.C.C.C.C.C.M.k.C.C.C.C.C.C.C.C.C.C.C.C.C.C.C.C.k = / ^ Q Q Q Q Q Q Q ",
"Q ^ Q Q Q ) Q   y.C.C.C.C.C.C.C.M.k.V.C.C.C.C.C.C.C.C.C.C.C.C.C.C.C.C.d.. ~ / / Q Q Q ) Q ",
"Q Q Q Q Q Q Q . y.C.C.C.C.C.C.C.M.k.C.C.C.C.C.C.C.C.C.C.C.C.C.C.C.C.C.h.  ~ ~ ~ / ~ Q Q Q ",
"Q Q ) ) +.) Q # F n.n.n.N.C.C.C.M.k.C.C.C.C.C.C.C.C.C.C.C.C.C.C.C.C.C.h.  ~ ~ ~ ~ ~ ~ W Q ",
"Q Q Q | s.p.) W <   .   u.C.C.C.M.k.C.C.C.C.C.C.C.C.C.C.C.C.C.C.C.C.C.h.  ~ ~ ~ ^ ~ ~ U Q ",
"Q Q E | s.t.[ Q n u i i r V C.C.M.k.V.C.l.g h 2 w d 6 d h 2 h h 2 V.C.h.  ~ ^ ~ ^ ^ ^ ^ Q ",
"Q Q E m B N Q Q ) W ~ ' e 6 h.N.M.k.C.C.h.                        V.C.h.  W ^ ^ ^ ^ ^ ' ) ",
"Q ) Q Q Q Q Q Q E W Q Q ^ b   l.M.k.V.C.h.                        V.C.h.  Q Q Q W ' ) #.@.",
"Q Q Q Q Q Q Q Q T W Q Q 6     l.M.k.C.C.h.  X.o.o.o.O 8 o.o.o.K   V.C.h.  W Q R W Q N | #.",
"Q Q Q Q Q Q Q Q T W Q = C l.k.V C k.C.C.h.  o.O.O.O.O K O.O.O.K   V.C.h.  W Q Q ^ Q E m N ",
"Q Q Q Q Q Q Q Q T T y   z h.h.> 2 k.C.C.h.  K K ..K . 7 ......8   V.C.h.  Q Q Q ^ ) ) W ) ",
"Q Q Q Q Q Q Q Q T a       . .   2 k.C.C.h.        .               V.C.h.  Q Q Q Q Q Q Q Q ",
"^ ^ Q Q Q Q Q Q R a   m.N.N.N.2 . X @ @ X                         @ @ < a ~ Q Q Q ^ Q ) Q ",
"^ / ^ Q ^ ^ ^ Q ~ a   v.n.m.C.j.z   r.y.y.y.y.y.y.y.y.y.y.y.y.y.y.. - y R Q E W W ^ ~ ^ Q ",
"^ / ^ ) ^ ~ ~ R ~ a   j.k.v.C.C.k.> b.V.C.C.C.C.C.C.C.C.C.C.C.C.C.1 u p W ^ R R / / ! ~ Q ",
"Q ~ ..+.^ ~ ~ p P p   j.k.v.C.C.C.V.@ l.C.C.C.C.C.C.C.C.C.C.C.C.C.C.k = E T R ^ ~ ~ ~ ^ Q ",
"Q ~ ) L ^ W R ~ ~ a   > f.N.C.C.C.C.X *.9.9.9.9.9.9.9.9.9.9.9.9.9.6.>.&.E Q ^ ^ ^ ~ ^ ^ Q ",
"Q ~ ~ +.Q W ^ ^ ^ p   l r.k.C.C.V.M.j %.;.6.6.3.<.6.6.3.<.6.6.5.,.6.6.7.-.^ Q Q ^ ^ ^ ^ Q ",
") ~ ~ ~ W W ^ ^ ^ p   N.F > C.C.M.k.k.1 g c.c.0.3.x.c.q.3.x.c.e.,.x.c.e.,.Q Q Q Q Q ^ Q Q ",
"Q Q ~ W Q Q W ^ ^ p   N.C.b.@ X j k.k.1 g x.c.q.3.x.c.q.3.x.c.e.,.z.c.e.,.W ' Q Q Q Q Q Q ",
"Q ~ ^ E Q Q Q ^ ^ p   v.n.v.V V V l l f =.c.c.q.3.x.c.q.3.z.c.e.,.z.c.e.,.E R ) Q ) Q Q Q ",
"Q ^ W W Q ^ Q ^ ^ n ; D d.k.k.k.y.2 s :.5.e.e.5.4.e.e.6.4.e.e.0.,.w.e.8.2.Q W ' Q Q Q Q Q ",
"Q ^ W Q Q Q Q Q Q Q W X V l.k.k.k.k.1.,.,.,.,.,.,.,.,.,.,.,.,.,.,.,.<.*.Q ^ ^ ' Q Q Q Q Q ",
"Q ^ Q Q Q Q Q Q Q Q Q E w 1 V.C.C.V.B.B.B.B.B.B.B.B.B.B.B.B.g , _ _ ( ( / / / ~ ^ Q Q Q Q ",
"Q Q Q Q Q Q Q Q Q Q Q Q i e C D D D D D D D D D D D D D D D r u ^ ~ / / ! ! ! ! ~ ^ Q Q Q ",
"Q Q Q Q Q Q Q Q E T T T ~ a + + + +   @ : : : $ $     . + + b Q ~ ~ ~ ~ ! ~ ~ ! ~ ~ ~ ) Q ",
"Q U Q Q Q Q Q Q Q Q ^ ^ R L R R R R . F k.k.k.k.f.    6 Q W Q W ~ ~ ~ ~ ' } $.] ~ ~ ~ Q Q ",
"Q W Q Q Q Q Q Q Q Q ^ ^ ~ E T ~ ^ ~ i 2 > > > > >   u n Q Q ~ ~ ~ ^ ~ ~ Z s.a.+.^ ^ ~ Q Q ",
"Q ) Q Q Q Q Q Q Q Q ~ ^ Q ~ T ^ ^ ~ ^ q ; ; = , 1 < E ^ Q ^ ^ ^ ^ ^ ^ W v A S ` W T T W Q ",
"_ p.+.Q Q Q Q Q Q ^ ^ ^ Q ~ E ^ ^ ^ ^ ~ ^ Q Q b N Q Q W Q Q ^ ^ ^ Q Q ^ n m M W ^ Q Q Q E ",
"x  .a.] Q Q Q Q Q Q Q ^ Q Q W Q Q Q Q Q ) Q Q Q Q Q ' W I ^ W Q ^ Q ~ Q Q W Q Q Q Q Q Q Q ",
"n x B ) Q Q Q Q Q Q Q Q Q Q Q Q Q Q Q Q Q Q Q Q Q Q Q Q Q Q Q Q ) Q Q Q Q Q Q Q Q Q Q Q Q "
};
