/* XPM */
static char *result[] = {
/* columns rows colors chars-per-pixel */
"45 45 171 2 ",
"   c #020201",
".  c #090604",
"X  c #0B0905",
"o  c #0C0B0A",
"O  c #140C07",
"+  c #120E0B",
"@  c #190F09",
"#  c #15120D",
"$  c #1C120A",
"%  c #141210",
"&  c #1B1714",
"*  c #1E1A13",
"=  c #1F1B19",
"-  c #22150C",
";  c #27190D",
":  c #2A1B0F",
">  c #231C12",
",  c #211C19",
"<  c #311F11",
"1  c #272014",
"2  c #2C2316",
"3  c #26211E",
"4  c #2A241C",
"5  c #342112",
"6  c #3B2615",
"7  c #352C1D",
"8  c #3D2D1C",
"9  c #38301F",
"0  c #262320",
"q  c #2C2622",
"w  c #2D2824",
"e  c #2D2B28",
"r  c #312A25",
"t  c #372E29",
"y  c #3D3524",
"u  c #35322E",
"i  c #3C332D",
"p  c #373633",
"a  c #3D3732",
"s  c #3D3A35",
"d  c #3E3D3C",
"f  c #442B17",
"g  c #422C1A",
"h  c #4D2F1B",
"j  c #41321E",
"k  c #4D321C",
"l  c #54331D",
"z  c #59371E",
"x  c #593A1F",
"c  c #413623",
"v  c #483522",
"b  c #433925",
"n  c #4B3E27",
"m  c #46362B",
"M  c #483E2A",
"N  c #5C3B20",
"B  c #413730",
"V  c #443D34",
"C  c #4A3F37",
"Z  c #433F38",
"A  c #633D22",
"S  c #4D422C",
"D  c #524126",
"F  c #52442B",
"G  c #55482D",
"H  c #5B4A2E",
"J  c #43403B",
"K  c #4C423A",
"L  c #544534",
"P  c #544931",
"I  c #5A4C31",
"U  c #53473E",
"Y  c #5E5133",
"T  c #674324",
"R  c #6D4325",
"E  c #714527",
"W  c #714927",
"Q  c #764928",
"!  c #7D4C2B",
"~  c #7D512B",
"^  c #635335",
"/  c #695534",
"(  c #665738",
")  c #675838",
"_  c #6C5C3A",
"`  c #735C37",
"'  c #725D39",
"]  c #6F603D",
"[  c #72623E",
"{  c #4A4944",
"}  c #494949",
"|  c #544942",
" . c #594B42",
".. c #5E5046",
"X. c #5B564E",
"o. c #5F5950",
"O. c gray36",
"+. c #6C5D4C",
"@. c #635B52",
"#. c #695C55",
"$. c #756341",
"%. c #786745",
"&. c #7D6943",
"*. c #76654D",
"=. c #7F6E4E",
"-. c #676056",
";. c #6B6255",
":. c #65635D",
">. c #6B645C",
",. c #726454",
"<. c #7D6D55",
"1. c #72645C",
"2. c #746B5F",
"3. c #7A6B58",
"4. c #6E6C65",
"5. c #766F63",
"6. c #786A62",
"7. c #776D6B",
"8. c #7E7066",
"9. c #7E7669",
"0. c #804E2C",
"q. c #84562E",
"w. c #86693E",
"e. c #826D45",
"r. c #896C43",
"t. c #846F49",
"y. c #8B6D48",
"u. c #877047",
"i. c #8B7146",
"p. c #86724A",
"a. c #8C754B",
"s. c #8F7A4F",
"d. c #957646",
"f. c #987645",
"g. c #957847",
"h. c #937749",
"j. c #91794C",
"k. c #826E55",
"l. c #837252",
"z. c #8A7651",
"x. c #8E7A52",
"c. c #85755B",
"v. c #897559",
"b. c #927A54",
"n. c #927D5C",
"m. c #8D7B62",
"M. c #83756A",
"N. c #87786B",
"B. c #927F60",
"V. c #917F6C",
"C. c #837674",
"Z. c #847977",
"A. c #8D7D73",
"S. c #8B7D7C",
"D. c #95826C",
"F. c #838178",
"G. c #8E807D",
"H. c #958374",
"J. c #95847B",
"K. c #968D7E",
"L. c #938484",
"P. c #988681",
"I. c #998882",
"U. c #978788",
"Y. c #99898B",
"T. c #959189",
"R. c #A79C8C",
"E. c #AFA493",
"W. c #B8AD9B",
"Q. c #CABDA9",
"!. c #CEC2AD",
/* pixels */
"s.s.s.s.s.m.I.H.D.i.g.g.a.g.g.g.i.s.s.s.D.w.D.D.g.i.D.i.g.D.i.g.i.g.g.g.s.s.s.s.s.s.s.s.i.",
"s.s.s.s.a.1.Z.M.s.g.g.g.g.g.g.g.g.s.s.s.j.j.g.w.w.g.i.D.a.g.g.g.g.g.g.g.g.s.s.a.s.s.s.s.g.",
"s.s.s.s.x.x.H.H.i.g.g.D.j.g.s.D.i.D.) y 7 7 7 7 7 9 9 7 9 ` g.i.g.D.s.s.s.s.s.g.a.i.s.s.g.",
"j.s.s.s.s.l.8.M.D.g.f.f.g.g.g.w.&.e.F # X X X X X X   X + Y [ g.g.g.g.s.s.s.D.i.s.D.K.K.D.",
"j.j.s.a.s.z.=.p.g.g.g.f.w.D.w.D 2 2 8 z x x z z x 8 o u :.S 2 D.g.g.g.a.e.D.s.D.D.a.K.T.D.",
"j.j.g.s.a.s.s.s.g.f.g.w.f.w.` 9 # o 5 W 0.0.0.0.~ T # { K.s X w.g.g.u.i.u.p.c.F.K.s.5.9.D.",
"D.w.g.a.p.a.j.g.f.f.g.g.w.` 1 k D @ 5 ~ 0.0.0.0.~ A # U T.s X w.u.a.a.g.a.i.=.F.F.s.i.j.w.",
"g.D.g.j.a.i.g.j.D.w.g.g.f.H X x N - 5 W 0.0.0.0.~ A # u :.0 X p.g.i.D.a.g.g.e.p.D.i.g.i.i.",
"g.i.g.g.s.g.a.g.g.g.g.a.g.G X k A - < Q 0.0.0.0.0.A @ o % X   u.s.s.s.s.a.g.g.s.g.s.s.s.g.",
"g.D.i.g.g.i.s.i.a.s.g.s.g.H X x A $ 6 Q 0.0.0.0.! A @         u.s.s.s.a.p.p.a.a.s.s.s.s.a.",
"j.i.g.g.g.D.s.a.u.g.s.s.g.H X D A - 5 Q 0.0.! 0.0.A @         &.p.s.s.s.a.s.s.s.s.s.s.s.s.",
"j.i.D.g.s.s.s.g.s.a.s.g.D.[ Y 9 @ . X $ - - l q.0.A @ i 4.e   a.s.s.a.a.s.s.s.s.s.s.s.s.s.",
"D.i.s.g.s.s.s.s.s.s.s.s.s.s.&.y O @ X   X o j W W z O J F.d # a.D.i.g.s.s.s.s.s.s.s.s.s.i.",
"a.g.s.g.s.s.s.s.s.s.s.g.g.s.a.&.[ [ c . y [ j @ O O   + & P [ s.j.j.a.s.s.s.s.s.s.s.s.s.D.",
"s.s.s.s.s.s.s.s.s.s.s.s.s.g.g.g.h.j.F o S z.G * * * * * * ( s.s.g.g.g.g.s.s.s.s.s.s.s.s.a.",
"s.s.s.s.s.s.s.s.s.s.s.s.s.g.g.g.t.v.L + S p.a.s.s.j.s.s.s.s.j.j.g.g.g.g.g.g.s.s.s.s.s.s.g.",
"s.s.s.x.D.s.x.s.s.s.s.j.j.g.g.i.$.| m g v n _ a.b.s.s.s.s.j.j.g.g.g.g.g.g.g.g.s.a.g.i.w.i.",
"s.s.s.x.D.D.D.s.s.s.j.h.h.h.h.e./ > f E h O S t.a.s.s.s.j.j.g.j.g.g.a.g.j.a.s.g.i.D.g.g.i.",
"s.s.s.v.F.J.D.v.s.a.g.j.j.h.r.D 6 h A 0.R z f t $.s.s.s.j.h.j.h.g.s.s.a.g.s.g.g.i.s.g.D.D.",
"s.s.s.l.3.8.c.x.a.a.j.j.[ &._ 2 + N E A R R < o P &.%.&.&.&.&.j.s.s.g.g.j.s.s.j.D.a.g.i.i.",
"s.s.s.s.z.z.s.s.a.a.s.[ # # # .   o O O O O .   + # # # # # $ a.D.i.g.s.s.s.s.s.D.D.D.D.D.",
"s.s.s.s.s.s.s.s.p.p.j.[   o , , , , , , +   + , = = , = , X   $.%.s.a.s.a.a.s.p.9.D.=.F.F.",
"s.x.s.s.s.s.s.s.p.a.s.]   q 1.1.1.1.1.1.a   a 4.1.1.1.1.1.q     # e.a.s.D.i.s.p.%.<.=.-.<.",
"s.s.s.s.s.s.s.s.p.i.` F   q 1.1.1.1.@.| J Z C | | | | { | =   s S G ) p.a.g.s.s.s.s.s.s.D.",
"s.s.b.s.s.s.s.s.u.` $ .   3 #.#.#.#.a X X.!.-.o     o o   o # !.E.* 0 ] s.s.i.g.s.s.s.s.s.",
"s.j.j.j.s.s.j.s.G j k 6   # e t r r &   q o.5.5.0 = -.J . { 9.o.X.d p y Y s.D.i.s.s.s.s.s.",
"j.j.g.j.j.a.j.j.1 O W T   . O O O O X       ;.R.u e K.#.o 5.W.  % O.} o b w.g.g.g.D.g.s.s.",
"j.j.g.j.j.j.g.i.1 O W T   - x x N N 5       3 a % + u 3   e J   % O.} o b D.g.g.g.i.g.g.s.",
"s.s.g.j.s.s.h.u.: O W T   5 q.q.~ T g , = & & % . X $ ; ; X     % O.{ # b g.g.g.g.s.g.s.s.",
"s.s.g.j.j.a.a.g.1 @ W T   5 q.q.W < 4 C K K U V # @ x W W :     % O.} % b s.s.s.a.s.s.g.s.",
"s.s.g.g.j.a.a.j.1 O W T   5 ~ x 5 O q  .......U & O 6 T ~ 5   c y p y b ) s.s.s.s.s.s.g.s.",
"s.s.s.j.h.a.s.s.1 @ W T   5 Q < .   3 | ......U &     f ~ 5   e.] # 2 [ a.s.s.s.s.s.s.s.s.",
"s.s.j.a.a.s.s.a.2 O W T   O 6 r t t r 3 , 3 3 q r t t r 6 O   a.p.I Y =.a.s.s.s.s.s.s.j.x.",
"s.s.j.a.a.s.s.s.2 $ T T     o y  . .t o . .   + B  . .r       a.s.s.s.a.s.s.s.s.x.s.s.s.s.",
"s.s.j.a.s.s.x.j.&./ ; O       o + + 3 C C U C V , + O .       a.j.g.j.j.j.x.s.b.s.s.s.s.s.",
"s.x.j.j.s.s.s.s.D.[ 7 $       o + . 3 | ......| &   + o       h.g.f.f.g.g.j.j.j.s.s.s.s.s.",
"s.j.j.x.s.s.s.s.s.p.&.Y     . t B % 3  ..... .U & % B q .     i.g.f.f.f.h.h.h.b.D.w.a.g.s.",
"x.s.a.s.s.s.s.s.a.a.u._     o i C % 4  .......U & % C r       d.f.j.b.n.b.h.f.j.g.D.a.D.s.",
"s.s.a.s.j.s.s.s.x.s.s.'     o i L % 3  .....@.L & % C r .     a.j.j.m.P.H.b.h.j.g.i.j.j.s.",
"s.s.s.s.x.s.s.s.s.j.h.e.n 4 . & q r q q q q q q r r w &   2 n j.j.u.6.C.N.x.u.u.D.g.j.j.s.",
"s.v.D.D.s.s.s.s.s.j.j.s.u.H X . # a r o       o i i # X X H t.j.g.i.%.;.=.s.s.a.i.u.g.s.s.",
"s.,.S.J.b.j.s.s.s.s.s.j.s.&.G > . # +           % % . 4 I e.j.s.a.D.s.p.s.s.s.s.i.g.e.a.s.",
"l.&.+.3.x.x.s.s.s.s.s.s.s.s.&.7                       c p.x.s.s.s.s.s.s.s.s.s.s.D.a.a.s.a.",
";.9.Y.n.s.s.s.s.s.j.j.s.s.s.p.s.s.j.s.x.s.s.s.s.s.s.s.a.y.j.j.s.s.s.s.s.s.p.s.s.i.g.s.s.s.",
"t.+.1.z.s.s.s.s.s.s.s.s.s.s.s.s.s.s.s.s.s.s.s.x.s.s.s.j.s.s.s.s.s.s.s.s.s.s.s.s.s.s.s.s.s."
};
