/* XPM */
static char *result[] = {
/* columns rows colors chars-per-pixel */
"45 45 157 2 ",
"   c #000000",
".  c #090705",
"X  c #0C0A06",
"o  c #0B0909",
"O  c #150D07",
"+  c #100D0C",
"@  c #16130C",
"#  c #18140D",
"$  c #1E190F",
"%  c #131210",
"&  c #191513",
"*  c #1F1B16",
"=  c #1B1A18",
"-  c #21160C",
";  c #27190E",
":  c #2B1B0F",
">  c #231E14",
",  c #251F1B",
"<  c #2D2417",
"1  c #26211F",
"2  c #2C261A",
"3  c #312718",
"4  c #31291B",
"5  c #242323",
"6  c #282725",
"7  c #2F2924",
"8  c #2F2F2F",
"9  c #322A25",
"0  c #3B2F23",
"q  c #3C3220",
"w  c #33302B",
"e  c #3E352E",
"r  c #3E392C",
"t  c gray20",
"y  c #3E3A34",
"u  c #6C1917",
"i  c #402716",
"p  c #432B17",
"a  c #482F19",
"s  c #55341D",
"d  c #59391F",
"f  c #423722",
"g  c #463C27",
"h  c #483B25",
"j  c #483D28",
"k  c #5C3A20",
"l  c #433A36",
"z  c #603B21",
"x  c #793823",
"c  c #52462D",
"v  c #43413D",
"b  c #4D433A",
"n  c #514433",
"m  c #5D4F34",
"M  c #534938",
"N  c #5F5135",
"B  c #6D4226",
"V  c #6F4826",
"C  c #634F2F",
"Z  c #7D4226",
"A  c #7F4729",
"S  c #7A4F2A",
"D  c #7D512B",
"F  c #615134",
"G  c #6D5937",
"H  c #66543E",
"J  c #6C5B3B",
"K  c #705835",
"L  c #715E3B",
"P  c #73613D",
"I  c #7B633E",
"U  c #464646",
"Y  c #4E4A43",
"T  c gray30",
"R  c #544A41",
"E  c #5A4D43",
"W  c #504E49",
"Q  c #5E5046",
"!  c #5D584E",
"~  c #5C5850",
"^  c gray37",
"/  c #655949",
"(  c #6C5D4B",
")  c #625D54",
"_  c #6A5F53",
"`  c #6F604F",
"'  c #776642",
"]  c #7A6544",
"[  c #7E6847",
"{  c #676056",
"}  c #6A6155",
"|  c #69665D",
" . c #726555",
".. c #7C6C53",
"X. c #72645C",
"o. c #70695E",
"O. c gray40",
"+. c #6A6861",
"@. c #796D67",
"#. c #776E6B",
"$. c #77746E",
"%. c #79746E",
"&. c #7E7B74",
"*. c #804E2C",
"=. c #85562E",
"-. c #82673E",
";. c #836D45",
":. c #896B45",
">. c #816E4C",
",. c #8B6D48",
"<. c #867045",
"1. c #8B7346",
"2. c #857249",
"3. c #8B754B",
"4. c #8F7A4F",
"5. c #967646",
"6. c #987645",
"7. c #967847",
"8. c #937749",
"9. c #91794C",
"0. c #847356",
"q. c #887651",
"w. c #8E7A53",
"e. c #84745A",
"r. c #917B54",
"t. c #917D5D",
"y. c #8B7A64",
"u. c #82756A",
"i. c #977F66",
"p. c #917D69",
"a. c #827675",
"s. c #847977",
"d. c #8D7E77",
"f. c #8B7D7C",
"g. c #938065",
"h. c #96826E",
"j. c #8C8376",
"k. c #85817A",
"l. c #8F8678",
"z. c #958375",
"x. c #968478",
"c. c #998579",
"v. c #958C7D",
"b. c #8B8880",
"n. c #948486",
"m. c #988782",
"M. c #998882",
"N. c #978889",
"B. c #9A8A8B",
"V. c #9F9585",
"C. c #98958C",
"Z. c #9C988F",
"A. c #9F9B92",
"S. c #A39989",
"D. c #B6AB99",
"F. c #BBAF9D",
"G. c #CDC1AC",
/* pixels */
"4.4.4.4.4.y.v.z.4.4.4.8.9.9.9.4.4.4.4.4.4.4.4.9.4.4.4.4.4.4.4.9.7.4.4.g.g.-.4.4.4.4.4.4.g.",
"4.4.4.4.3.o.s.u.4.9.7.7.5.7.6.5.8.w.4.4.4.w.4.3.:.3.4.r.4.9.7.5.5.5.7.-.7.7.9.7.4.4.4.4.1.",
"4.4.3.4.4.>...3.8.7.7.7.7.5.              ' 4.              5.5.5.5.7.7.6.6.7.1.1.g.g.9.7.",
"9.8.4.3.4.4.4.4.7.5.-.K G K 6 6 6 6 6 6 6 F J 6 6 6 6 6 6 6 K G G I 8.7.7.g.I g.g.&.v.g.g.",
"8.7.4.<.4.8.9.7.7.8.h       A.A.A.A.A.A.A.=   A.A.A.A.A.A.A.      4 1.1.1.4.3.1.I ..b.C.g.",
"9.7.3.3.;.8.8.7.<.F M v v v A.A.A.A.A.A.A.=   A.A.A.A.A.A.A.v v v M N I g.9.8.<.g.' $.e.9.",
"r.8.9.4.3.1.8.8.G   W A.A.A.A.A.A.A.A.A.A.=   A.A.A.A.A.A.A.A.A.A.+.. g 1.7.1.8.-.1.-.7.g.",
"4.8.7.4.9.4.3.9.L   W A.A.A.A.v.W W W $.A.=   A.b.W W W b.A.A.A.A.+.  g -.g.3.q.7.g.7.7.-.",
"4.8.8.9.4.4.7.<.G . W A.A.A.A.$.      W A.=   A.%.      %.A.A.A.A.+.  g 4.4.3.<.1.3.4.9.4.",
"4.8.9.8.7.1.4.3.F X W A.A.A.A.$.      W A.=   A.%.      $.A.A.A.A.+.  g 4.4.3.4.4.4.4.4.4.",
"9.9.8.9.4.g.9.9.G @ M k.C.A.A.&.= = = W k.&   k.+.= = = &.A.A.Z.k.) # c 4.3.4.4.4.4.4.4.4.",
"w.9.3.9.4.4.4.4.g.g.g . $.A.A.A.A.A.A.T         6 A.A.A.A.A.A.b.  4 4.4.4.4.4.4.4.4.4.4.4.",
"4.9.7.7.g.7.9.9.1.1.F 4 ! | +.+.+.+.+.b 2 .   4 r +.+.+.+.+.+.| 4 c 4.4.4.w.4.4.4.4.4.4.4.",
"4.4.g.-.7.1.4.4.g.7.4.4.> X   .       g 3.@   4.J             < 4.4.8.5.7.7.9.4.4.4.4.4.w.",
"4.9.g.g.g.3.4.4.9.4.4.4.J C C C C N H I 4.@   4.2.N N N N N N J 4.9.5.5.7.5.7.7.9.w.4.4.9.",
"4.4.3.3.1.9.4.4.9.1.4.4.g.1.7.7.;. .N.g.5.@   3.3.4.4.4.4.4.4.4.8.8.8.8.8.5.8.8.7.8.4.4.r.",
"4.4.4.r.g.w.4.4.4.4.w.9.7.8.8.8.1.]  .n # k B # 4 r.4.4.4.4.4.9.8.8.8.8.8.8.8.8.8.8.8.,.3.",
"4.4.4.d.B.m.w.w.4.4.9.8.9.8.8.3.3.:.L f O B *.O < ] 2.4.4.4.9.8.8.9.8.8.8.9.8.8.8.9.8.8.4.",
"4.4.2.f.N.n.y.w.4.<.8.8.9.8.8.8.3.h   p *.*.*.*.z   j 4.4.4.9.9.8.8.8.9.9.8.9.9.9.8.9.9.4.",
"4.4.2.} X...3.4.4.2.' F F F F F C 3   : s s s s i   4 F N F F F F L 4.8.9.9.9.9.9.4.4.w.w.",
"4.w.4.4.4.4.4.4.3.3.g                                             4 4.9.4.9.9.9.3.r.w.x.x.",
"4.4.4.4.4.4.4.4.L g <       l l l l l l l l l l l l l l l l       # j J 9.3.4.3.3.4...f.j.",
"4.4.4.4.4.4.4.w.F           X.X.X.X.X.X.X.X.X.X.X.X.X.X.X.X.          g 3.4.4.4.9.4.>.} ..",
"4.4.4.4.4.4.4.4 >   b v.1   1 5 1 1 1 , 5 , 5 1 1 1 1 1 1 1   % v.)   @ < w.4.4.r.4.9.3.r.",
"4.4.4.9.4.4.4.  . % o.G.y %   . % o     o     o .   o % .   % 6 G.l.@ o   9.4.4.4.4.4.4.4.",
"4.8.4.4.4.4.4.  w G.o.% V.G.  w G.{   8 ^ %   ^ U   { G.w   G.D.@ W G.)   9.4.9.4.4.4.w.4.",
"9.7.9.w.w.4.9.  7 F.!   j.F.  7 F.~   t O.%   O.T   ! F.7   F.S.  y F.!   3.2.3.3.7.7.4.4.",
"9.7.9.4.8.7.7.                        t O.%   O.T                         r.1.1.7.7.5.8.4.",
"4.8.9.4.8.8.8.q 4   & 9 o   p p p -   t O.%   O.T   - a p p   . 9 =   > g <.<.8.8.8.8.9.4.",
"4.8.7.4.w.3.1.8.G   7 Q &   =.=.=.p   t O.%   O.T   p =.=.=.  o E l   j 2.9.9.9.9.8.9.9.4.",
"4.8.8.9.4.3.4.3 9 e 7 > .   =.=.=.V d 0 1 .   5 9 d V =.=.=.    = 1 r 0 < 4.4.4.9.9.9.9.4.",
"4.8.8.9.3.3.9.  & Q 9 .     =.=.=.=.=.a . . . . ; =.=.=.=.=.    . 1 Q 7   4.4.w.4.9.4.4.4.",
"4.9.9.8.3.4.9.  & Q M R &   =.=.=.=.=.=.S S S S D =.=.=.=.=.  o R R Q 7   4.4.4.4.4.4.4.4.",
"4.9.4.<.4.4.4.  + e l e +   =.=.=.=.=.=.=.=.=.=.=.=.*.Z *.=.  . l f e ,   2.3.4.4.4.4.4.4.",
"4.9.1.3.4.4.9.              =.=.=.=.=.=.=.=.=.=.=.=.x u *.=.              4.3.r.4.4.4.w.4.",
"4.4.3.4.4.4.4.  o 7 7 7 o   =.=.=.=.=.=.=.=.=.=.=.=.A x *.=.  . 7 7 7 &   8.4.r.4.4.4.4.4.",
"4.4.4.4.4.4.4.  & Q E / &   =.=.=.=.=.=.=.=.=.=.=.=.=.=.=.=.  o E / Q 7   6.7.8.9.w.4.4.4.",
"4.4.4.4.4.4.4.  & E e & .   ; ; ; ; ; ; ; ; ; ; ; ; ; ; ; ;     & 7 Q 7   8.7.7.7.9.4.4.4.",
"4.4.4.4.4.4.4.  & Q 7                                             = E 7   8.8.7.8.7.9.4.4.",
"4.1.4.4.4.4.4.    + 7 b b b   $ I I I I I I ] ' ' ' ' ' *   b b b e + .   h.c.r.9.8.8.9.4.",
"4.3.4.4.4.4.4.@ +   2 b b b @ 4 8.9.8.9.9.8.3.z.g.9.4.4.4 # b b b 9   . % N.B.g.9.8.3.9.4.",
"4.r.4.4.4.4.4.2.H     . . . ] 3.4.9.3.9.9.9.] %.n.w.4.r.3.;.. . . .   f / #.%.0.3.<.<.3.4.",
"e.m.h.4.4.w.4.4.] 4 4 2 4 2 1.9.9.9.9.8.r.4.3.] ..4.4.3.w.9.2 4 4 2 3 F [ _  .3.4.4.4.4.3.",
"( a.N.t.4.4.4.4.9.9.4.4.9.4.3.9.9.4.4.4.4.4.w.4.4.4.r.3.,.9.9.4.r.9.4.9.4.3.4.4.4.4.4.4.4.",
";.(  .w.4.4.4.4.4.4.4.4.4.4.4.4.4.4.4.4.4.4.4.4.4.4.4.4.3.w.w.9.4.4.4.4.4.4.4.4.4.4.4.4.4."
};
